<?xml version="1.0" encoding="utf-8"?>
<!-- Generator: Adobe Illustrator 22.0.0, SVG Export Plug-In . SVG Version: 6.00 Build 0)  -->
<svg version="1.1" id="Layer_1" xmlns="http://www.w3.org/2000/svg" xmlns:xlink="http://www.w3.org/1999/xlink" x="0px" y="0px"
	 width="40px" height="40px" viewBox="0 0 40 40" style="enable-background:new 0 0 40 40;" xml:space="preserve">
<style type="text/css">
	.st0{fill:#00718E;}
</style>
<g>
	<g>
		<g>
			<path class="st0" d="M20.2,13.2c0,0,0,0-0.1-0.1c0,0,0,0,0,0c0,0,0,0-0.1,0c0,0-0.1,0-0.1-0.1c0,0,0,0-0.1,0c0,0,0,0-0.1,0
				c0,0-0.1-0.1-0.1-0.1c-0.2-0.1-0.4-0.3-0.7-0.6c-0.2-0.2-0.4-0.6-0.6-0.9c-0.2-0.4-0.2-0.8-0.2-1.3l0,0c0,0,0-0.1,0,0l0,0l0,0
				l0,0l0-0.1l0-0.1l0,0l0,0l0,0c0-0.1,0-0.1,0-0.2c0-0.1,0-0.1,0-0.2c0-0.1,0.1-0.2,0.1-0.3c0-0.1,0-0.1,0.1-0.2
				c0-0.1,0.1-0.1,0.1-0.2c0.2-0.4,0.6-0.8,1-1.1c0.4-0.3,0.9-0.4,1.4-0.4l0.2,0h0h0h0c0.1,0,0,0,0,0h0l0.1,0l0.2,0
				c0.1,0,0.1,0,0.2,0l0.1,0c0,0,0.1,0,0.1,0l0.2,0.1c0.1,0,0.1,0,0.2,0.1c0.1,0,0.1,0,0.2,0.1c0.4,0.2,0.8,0.5,1,0.9
				c0.3,0.4,0.4,0.8,0.4,1.2c0,0.2,0,0.4,0,0.6l0,0.1l0,0l0,0c0,0,0,0.1,0,0.1c0,0,0,0.1,0,0.1c0,0,0,0.1,0,0.1
				c0,0.2-0.1,0.3-0.2,0.4c-0.1,0.1-0.1,0.3-0.2,0.4c-0.2,0.2-0.3,0.4-0.5,0.5c-0.1,0.1-0.1,0.1-0.2,0.1c-0.1,0-0.1,0.1-0.2,0.1
				c-0.1,0-0.1,0.1-0.1,0.1c-0.1,0-0.1,0-0.2-0.1c0-0.1,0-0.1,0-0.1l0,0c0,0,0,0,0.1-0.1c0,0,0.1-0.1,0.1-0.1c0,0,0.1-0.1,0.2-0.1
				c0.1-0.1,0.3-0.3,0.4-0.5c0.1-0.1,0.1-0.2,0.2-0.3c0-0.1,0.1-0.2,0.1-0.4c0,0,0-0.1,0-0.1c0,0,0-0.1,0-0.1c0,0,0-0.1,0-0.1l0,0
				l0,0l0-0.1c0-0.1,0-0.3-0.1-0.4c-0.1-0.3-0.2-0.6-0.4-0.8c-0.2-0.2-0.5-0.4-0.8-0.6c0,0-0.1,0-0.1,0c0,0-0.1,0-0.1,0l-0.1,0
				c0,0,0,0-0.1,0l-0.1,0l-0.1,0l-0.2,0h-0.1h0c0,0,0,0,0,0l0,0l0,0l0,0l-0.1,0c-0.2,0-0.3,0.1-0.5,0.1c-0.1,0.1-0.3,0.2-0.4,0.2
				c-0.2,0.2-0.4,0.4-0.5,0.7c0,0,0,0.1,0,0.1c0,0,0,0.1,0,0.1c0,0.1,0,0.1,0,0.2c0,0,0,0.1,0,0.1c0,0,0,0.1,0,0.1c0,0,0,0,0,0v0v0
				V10l0,0.1l0,0v0v0c0,0,0,0,0,0l0,0c0,0.2,0.1,0.5,0.2,0.7c0.1,0.2,0.2,0.3,0.4,0.4c0.1,0.1,0.3,0.2,0.4,0.2c0,0,0.1,0,0.1,0
				c0,0,0,0,0,0c0,0,0,0,0,0c0,0,0,0,0,0c0,0,0,0,0,0c0,0,0,0,0,0c0.1,0,0.1,0,0.1,0c0.5,0.1,0.7,0.6,0.6,1.1
				C21.2,13.1,20.7,13.4,20.2,13.2C20.2,13.2,20.2,13.2,20.2,13.2z"/>
			<path class="st0" d="M20.7,26.5c0,0,0,0-0.1,0c0,0,0,0,0,0c0,0,0,0,0,0c0,0,0,0,0,0c0,0,0,0,0,0c0,0,0,0,0,0c0,0,0,0-0.1,0
				c-0.1,0-0.2,0.1-0.4,0.2c-0.1,0.1-0.3,0.3-0.4,0.4c-0.1,0.2-0.2,0.4-0.2,0.7v0c0,0,0-0.1,0,0l0,0v0v0l0,0.1v0.1v0v0c0,0,0,0,0,0
				c0,0,0,0.1,0,0.1c0,0,0,0.1,0,0.1c0,0.1,0,0.1,0,0.2c0,0,0,0.1,0,0.1c0,0,0,0.1,0,0.1c0.1,0.3,0.3,0.5,0.5,0.7
				c0.1,0.1,0.3,0.2,0.4,0.2c0.1,0.1,0.3,0.1,0.5,0.1l0.1,0l0,0l0,0l0,0c0,0,0,0,0,0h0l0.1,0h0.2l0.1,0l0.1,0c0,0,0,0,0.1,0l0.1,0
				c0,0,0.1,0,0.1,0c0,0,0.1,0,0.1,0c0.3-0.1,0.6-0.3,0.8-0.6c0.2-0.2,0.4-0.5,0.4-0.8c0-0.1,0.1-0.3,0.1-0.4l0-0.1l0,0l0,0
				c0,0,0-0.1,0-0.1c0,0,0-0.1,0-0.1c0,0,0-0.1,0-0.1c0-0.1-0.1-0.3-0.1-0.4c0-0.1-0.1-0.2-0.2-0.3c-0.1-0.2-0.3-0.4-0.4-0.5
				c-0.1-0.1-0.1-0.1-0.2-0.1c-0.1,0-0.1-0.1-0.1-0.1c-0.1,0-0.1-0.1-0.1-0.1l0,0c-0.1,0-0.1-0.1,0-0.2c0-0.1,0.1-0.1,0.1,0
				c0,0,0,0,0.1,0.1c0,0,0.1,0.1,0.2,0.1c0.1,0,0.1,0.1,0.2,0.1c0.2,0.1,0.3,0.3,0.5,0.5c0.1,0.1,0.2,0.2,0.2,0.4
				c0.1,0.1,0.1,0.3,0.2,0.4c0,0,0,0.1,0,0.1c0,0,0,0.1,0,0.1c0,0,0,0.1,0,0.1l0,0l0,0l0,0.1c0,0.2,0,0.4,0,0.6
				c0,0.4-0.2,0.8-0.4,1.2c-0.2,0.4-0.6,0.7-1,0.9c-0.1,0-0.1,0.1-0.2,0.1c-0.1,0-0.1,0-0.2,0.1l-0.2,0.1c0,0-0.1,0-0.1,0l-0.1,0
				c-0.1,0-0.1,0-0.2,0l-0.2,0l-0.1,0l0,0c0,0,0,0,0,0h0h0l0,0l-0.2,0c-0.5,0-1-0.2-1.4-0.4c-0.4-0.3-0.8-0.6-1-1.1
				c0-0.1-0.1-0.1-0.1-0.2c0-0.1,0-0.1-0.1-0.2c0-0.1-0.1-0.2-0.1-0.3c0-0.1,0-0.1,0-0.2c0-0.1,0-0.1,0-0.2l0,0l0,0l0,0l0-0.1l0-0.1
				l0,0l0,0l0,0c0,0,0,0,0,0v0c0-0.4,0.1-0.9,0.2-1.3c0.2-0.4,0.4-0.7,0.6-0.9c0.2-0.2,0.5-0.4,0.7-0.6c0.1,0,0.1-0.1,0.1-0.1
				c0,0,0,0,0.1,0c0,0,0.1,0,0.1,0c0,0,0.1,0,0.1-0.1c0,0,0,0,0.1,0c0,0,0,0,0,0c0.1,0,0.1-0.1,0.1-0.1c0.4-0.2,0.9,0,1.1,0.5
				C21.5,25.8,21.3,26.3,20.7,26.5C20.8,26.5,20.8,26.5,20.7,26.5z"/>
		</g>
	</g>
	<g>
		<path class="st0" d="M23.4,34.8c-0.7,0.1-1.4,0.1-2.2,0.1c-0.8-0.1-1.5-0.2-2.2-0.4c-0.9-0.3-1.8-0.8-2.6-1.4
			c-0.7-0.6-1.3-1.3-1.8-2c-0.5-0.8-0.7-1.7-0.8-2.6c-0.1-0.9,0.1-1.8,0.4-2.7c0.3-0.7,0.6-1.5,1-2.1c0.5-0.8,1.2-1.6,1.9-2.3
			c0.7-0.7,1.5-1.3,2.3-1.9c0.8-0.6,1.7-1.1,2.5-1.7c1.3-1,2.5-2.1,3.4-3.5c0.3-0.4,0.5-0.9,0.7-1.3c0.2-0.4,0.3-0.7,0.4-1.1
			c0,0,0,0,0,0c0-0.2,0.1-0.4,0.1-0.6c0.1-0.4,0.1-0.9,0.1-1.3c0-0.7-0.2-1.3-0.5-2c-0.5-1.2-1.4-2.2-2.4-2.9c0,0,0,0,0,0
			c0,0,0,0-0.1,0c0,0-0.1-0.1-0.1-0.1c-0.1-0.1-0.2-0.1-0.3-0.1c-0.3-0.2-0.6-0.3-1-0.5c-0.4-0.2-0.9-0.3-1.4-0.4
			c-0.2,0-0.4-0.1-0.7-0.1c-0.1,0-0.2,0-0.2,0c0,0,0,0,0,0c-1.7-0.1-3.4,0.2-5.1,0.9c-0.6,0.2-1.1,0.4-1.6,0.7
			c-0.2,0.1-0.4,0.2-0.5,0.3c-0.1,0-0.1,0.1-0.2,0.1c0,0,0,0-0.1,0c0,0-0.1,0,0,0c-0.3,0.2-0.6,0.4-0.9,0.6c-0.7,0.5-1.4,1-2,1.6
			c-1,1-2,2.1-2.7,3.3c-0.6,1-1.2,2.1-1.6,3.2c-0.4,1-0.6,2-0.8,3.1c-0.1,0.8-0.2,1.6-0.2,2.4c0,0.5,0,1.1,0,1.6
			c0,0.4,0.1,0.8,0.1,1.2c0.1,0.5,0.2,1,0.3,1.5c0.1,0.5,0.3,0.9,0.4,1.4c0,0,0,0,0,0c0.2,0.5,0.4,1,0.6,1.5C6.1,28,6.5,28.8,7,29.5
			c0,0.1,0.1,0.1,0.1,0.2c0,0,0,0,0,0.1c0,0,0,0.1,0,0.1C7.3,29.9,7.3,30,7.4,30c0.1,0.2,0.3,0.4,0.4,0.6C8,30.8,8.2,31,8.3,31.2
			c0.5,0.5,0.9,1,1.4,1.5c0.9,0.8,1.8,1.5,2.8,2c1.4,0.8,2.9,1.4,4.4,1.7c1.3,0.3,2.7,0.5,4.1,0.4c1,0,2.1-0.1,3.1-0.3
			c0.8-0.2,1.6-0.4,2.3-0.7c0.9-0.3,1.8-0.8,2.7-1.3c0.7-0.4,1.4-0.9,2-1.4c1.2-0.9,2.2-2,3.1-3.3c1.1-1.6,2-3.4,2.6-5.3
			c0.5-1.8,0.7-3.7,0.6-5.5c-0.1-2-0.6-4-1.4-5.8c-0.6-1.5-1.5-2.9-2.6-4.1c-0.1-0.1-0.2-0.3-0.3-0.4C33,8.8,33,8.7,32.9,8.6
			c0,0-0.1-0.1-0.1-0.1c0-0.1,0.1-0.2,0.1-0.1c0,0,0.1,0,0.1,0.1c0.1,0.1,0.2,0.2,0.4,0.4c0.6,0.6,1.2,1.3,1.7,2
			c1.2,1.6,2.1,3.4,2.6,5.3c0.3,1,0.5,2,0.6,3c0.1,0.8,0.1,1.7,0.1,2.6c-0.1,1-0.2,2-0.4,3c-0.2,1-0.5,2-0.9,2.9
			c-0.7,1.7-1.6,3.3-2.8,4.7c-1.1,1.4-2.5,2.6-3.9,3.6c-1.5,1-3.1,1.8-4.8,2.3c-1,0.3-2,0.5-3,0.7C21.8,39,21,39,20.1,39
			c-0.4,0-0.9,0-1.3-0.1c-1-0.1-2.1-0.2-3.1-0.5c-1.5-0.4-2.9-0.9-4.3-1.7c-1.1-0.6-2.1-1.3-3.1-2.1c-0.5-0.4-1.1-0.9-1.5-1.4
			c-0.3-0.3-0.6-0.7-0.9-1.1c-0.9-1.1-1.7-2.3-2.4-3.6c-0.7-1.3-1.2-2.8-1.5-4.2c-0.2-1.1-0.4-2.1-0.5-3.2c-0.1-0.7,0-1.5,0-2.2
			c0-0.7,0.1-1.3,0.2-2c0.2-1,0.4-1.9,0.7-2.9C2.8,13.1,3.2,12,3.8,11c0.8-1.5,1.8-2.9,2.9-4.1c0.9-1,1.9-1.9,3-2.6
			c0.7-0.5,1.5-1,2.3-1.4c1.2-0.6,2.5-1.1,3.8-1.4c0.6-0.2,1.2-0.3,1.8-0.3C18.2,1,19,1,19.7,1c1.6,0.1,3.3,0.5,4.8,1.3
			C25.8,3,27,4.1,27.8,5.4c0.8,1.2,1.3,2.6,1.5,4c0.1,1.4,0,2.7-0.5,4c-0.6,1.5-1.5,2.8-2.6,4c-1.3,1.4-2.9,2.5-4.5,3.4
			c-1.4,0.8-2.8,1.8-4,3c-0.6,0.6-1.1,1.3-1.5,2c-0.4,0.8-0.7,1.7-0.7,2.6c0,0.9,0.2,1.7,0.6,2.5c0.4,0.8,1.1,1.4,1.8,2
			c0.8,0.6,1.6,1,2.5,1.3c0.9,0.3,1.7,0.4,2.6,0.4c0.1,0,0.2,0,0.2,0c0.1,0,0.1,0,0.2,0C23.6,34.6,23.5,34.8,23.4,34.8z"/>
	</g>
</g>
</svg>
