<?xml version="1.0" encoding="utf-8"?>
<!-- Generator: Adobe Illustrator 22.0.0, SVG Export Plug-In . SVG Version: 6.00 Build 0)  -->
<svg version="1.1" id="Layer_1" xmlns="http://www.w3.org/2000/svg" xmlns:xlink="http://www.w3.org/1999/xlink" x="0px" y="0px"
	 width="245.2px" height="42.7px" viewBox="0 0 245.2 42.7" style="enable-background:new 0 0 245.2 42.7;" xml:space="preserve">
<style type="text/css">
	.st0{fill:#00718E;}
	.st1{fill:#EB008B;}
</style>
<g>
	<g>
		<g>
			<g>
				<path class="st0" d="M19.2,12.8c0,0,0,0-0.1-0.1c0,0,0,0,0,0c0,0,0,0-0.1,0c0,0-0.1,0-0.1-0.1c0,0,0,0-0.1,0c0,0,0,0-0.1,0
					c0,0-0.1-0.1-0.1-0.1c-0.2-0.1-0.4-0.3-0.7-0.6c-0.2-0.2-0.4-0.6-0.6-0.9c-0.2-0.4-0.2-0.8-0.2-1.3l0,0c0,0,0-0.1,0,0l0,0l0,0
					l0,0l0-0.1l0-0.1l0,0l0,0l0,0c0-0.1,0-0.1,0-0.2c0-0.1,0-0.1,0-0.2c0-0.1,0.1-0.2,0.1-0.3c0-0.1,0-0.1,0.1-0.2
					c0-0.1,0.1-0.1,0.1-0.2c0.2-0.4,0.6-0.8,1-1.1c0.4-0.3,0.9-0.4,1.4-0.4l0.2,0h0h0h0c0.1,0,0,0,0,0h0l0.1,0l0.2,0
					c0.1,0,0.1,0,0.2,0l0.1,0c0,0,0.1,0,0.1,0L21,7.1c0.1,0,0.1,0,0.2,0.1c0.1,0,0.1,0,0.2,0.1c0.4,0.2,0.8,0.5,1,0.9
					c0.3,0.4,0.4,0.8,0.4,1.2c0,0.2,0,0.4,0,0.6l0,0.1l0,0l0,0c0,0,0,0.1,0,0.1c0,0,0,0.1,0,0.1c0,0,0,0.1,0,0.1
					c0,0.2-0.1,0.3-0.2,0.4c-0.1,0.1-0.1,0.3-0.2,0.4c-0.2,0.2-0.3,0.4-0.5,0.5c-0.1,0.1-0.1,0.1-0.2,0.1c-0.1,0-0.1,0.1-0.2,0.1
					c-0.1,0-0.1,0.1-0.1,0.1c-0.1,0-0.1,0-0.2-0.1c0-0.1,0-0.1,0-0.1l0,0c0,0,0,0,0.1-0.1c0,0,0.1-0.1,0.1-0.1c0,0,0.1-0.1,0.2-0.1
					c0.1-0.1,0.3-0.3,0.4-0.5c0.1-0.1,0.1-0.2,0.2-0.3c0-0.1,0.1-0.2,0.1-0.4c0,0,0-0.1,0-0.1c0,0,0-0.1,0-0.1c0,0,0-0.1,0-0.1l0,0
					l0,0l0-0.1c0-0.1,0-0.3-0.1-0.4c-0.1-0.3-0.2-0.6-0.4-0.8C21.5,8.3,21.3,8.1,21,8c0,0-0.1,0-0.1,0c0,0-0.1,0-0.1,0l-0.1,0
					c0,0,0,0-0.1,0l-0.1,0l-0.1,0l-0.2,0h-0.1h0c0,0,0,0,0,0l0,0l0,0l0,0l-0.1,0c-0.2,0-0.3,0.1-0.5,0.1c-0.1,0.1-0.3,0.2-0.4,0.2
					c-0.2,0.2-0.4,0.4-0.5,0.7c0,0,0,0.1,0,0.1c0,0,0,0.1,0,0.1c0,0.1,0,0.1,0,0.2c0,0,0,0.1,0,0.1c0,0,0,0.1,0,0.1c0,0,0,0,0,0v0v0
					v0.1l0,0.1l0,0v0v0c0,0,0,0,0,0l0,0c0,0.2,0.1,0.5,0.2,0.7c0.1,0.2,0.2,0.3,0.4,0.4c0.1,0.1,0.3,0.2,0.4,0.2c0,0,0.1,0,0.1,0
					c0,0,0,0,0,0c0,0,0,0,0,0c0,0,0,0,0,0c0,0,0,0,0,0c0,0,0,0,0,0c0.1,0,0.1,0,0.1,0c0.5,0.1,0.7,0.6,0.6,1.1
					C20.2,12.7,19.8,13,19.2,12.8C19.3,12.9,19.2,12.9,19.2,12.8z"/>
				<path class="st0" d="M19.8,26.2c0,0,0,0-0.1,0c0,0,0,0,0,0c0,0,0,0,0,0c0,0,0,0,0,0c0,0,0,0,0,0c0,0,0,0,0,0c0,0,0,0-0.1,0
					c-0.1,0-0.2,0.1-0.4,0.2c-0.1,0.1-0.3,0.3-0.4,0.4c-0.1,0.2-0.2,0.4-0.2,0.7v0c0,0,0-0.1,0,0l0,0v0v0l0,0.1v0.1v0v0c0,0,0,0,0,0
					c0,0,0,0.1,0,0.1c0,0,0,0.1,0,0.1c0,0.1,0,0.1,0,0.2c0,0,0,0.1,0,0.1c0,0,0,0.1,0,0.1c0.1,0.3,0.3,0.5,0.5,0.7
					c0.1,0.1,0.3,0.2,0.4,0.2c0.1,0.1,0.3,0.1,0.5,0.1l0.1,0l0,0l0,0l0,0c0,0,0,0,0,0h0l0.1,0h0.2l0.1,0l0.1,0c0,0,0,0,0.1,0l0.1,0
					c0,0,0.1,0,0.1,0c0,0,0.1,0,0.1,0c0.3-0.1,0.6-0.3,0.8-0.6c0.2-0.2,0.4-0.5,0.4-0.8c0-0.1,0.1-0.3,0.1-0.4l0-0.1l0,0l0,0
					c0,0,0-0.1,0-0.1c0,0,0-0.1,0-0.1c0,0,0-0.1,0-0.1c0-0.1-0.1-0.3-0.1-0.4c0-0.1-0.1-0.2-0.2-0.3c-0.1-0.2-0.3-0.4-0.4-0.5
					c-0.1-0.1-0.1-0.1-0.2-0.1c-0.1,0-0.1-0.1-0.1-0.1c-0.1,0-0.1-0.1-0.1-0.1l0,0c-0.1,0-0.1-0.1,0-0.2c0-0.1,0.1-0.1,0.1,0
					c0,0,0,0,0.1,0.1c0,0,0.1,0.1,0.2,0.1c0.1,0,0.1,0.1,0.2,0.1c0.2,0.1,0.3,0.3,0.5,0.5c0.1,0.1,0.2,0.2,0.2,0.4
					c0.1,0.1,0.1,0.3,0.2,0.4c0,0,0,0.1,0,0.1c0,0,0,0.1,0,0.1c0,0,0,0.1,0,0.1l0,0l0,0l0,0.1c0,0.2,0,0.4,0,0.6
					c0,0.4-0.2,0.8-0.4,1.2c-0.2,0.4-0.6,0.7-1,0.9c-0.1,0-0.1,0.1-0.2,0.1c-0.1,0-0.1,0-0.2,0.1l-0.2,0.1c0,0-0.1,0-0.1,0l-0.1,0
					c-0.1,0-0.1,0-0.2,0l-0.2,0l-0.1,0l0,0c0,0,0,0,0,0h0h0l0,0l-0.2,0c-0.5,0-1-0.2-1.4-0.4c-0.4-0.3-0.8-0.6-1-1.1
					c0-0.1-0.1-0.1-0.1-0.2c0-0.1,0-0.1-0.1-0.2c0-0.1-0.1-0.2-0.1-0.3c0-0.1,0-0.1,0-0.2c0-0.1,0-0.1,0-0.2l0,0l0,0l0,0l0-0.1
					l0-0.1l0,0l0,0l0,0c0,0,0,0,0,0v0c0-0.4,0.1-0.9,0.2-1.3c0.2-0.4,0.4-0.7,0.6-0.9c0.2-0.2,0.5-0.4,0.7-0.6
					c0.1,0,0.1-0.1,0.1-0.1c0,0,0,0,0.1,0c0,0,0.1,0,0.1,0c0,0,0.1,0,0.1-0.1c0,0,0,0,0.1,0c0,0,0,0,0,0c0.1,0,0.1-0.1,0.1-0.1
					c0.4-0.2,0.9,0,1.1,0.5C20.5,25.4,20.3,25.9,19.8,26.2C19.8,26.1,19.8,26.1,19.8,26.2z"/>
			</g>
		</g>
		<g>
			<path class="st0" d="M22.4,34.4c-0.7,0.1-1.4,0.1-2.2,0.1c-0.8-0.1-1.5-0.2-2.2-0.4c-0.9-0.3-1.8-0.8-2.6-1.4
				c-0.7-0.6-1.3-1.3-1.8-2c-0.5-0.8-0.7-1.7-0.8-2.6c-0.1-0.9,0.1-1.8,0.4-2.7c0.3-0.7,0.6-1.5,1-2.1c0.5-0.8,1.2-1.6,1.9-2.3
				c0.7-0.7,1.5-1.3,2.3-1.9c0.8-0.6,1.7-1.1,2.5-1.7c1.3-1,2.5-2.1,3.4-3.5c0.3-0.4,0.5-0.9,0.7-1.3c0.2-0.4,0.3-0.7,0.4-1.1
				c0,0,0,0,0,0c0-0.2,0.1-0.4,0.1-0.6c0.1-0.4,0.1-0.9,0.1-1.3c0-0.7-0.2-1.3-0.5-2c-0.5-1.2-1.4-2.2-2.4-2.9c0,0,0,0,0,0
				c0,0,0,0-0.1,0c0,0-0.1-0.1-0.1-0.1c-0.1-0.1-0.2-0.1-0.3-0.1c-0.3-0.2-0.6-0.3-1-0.5c-0.4-0.2-0.9-0.3-1.4-0.4
				c-0.2,0-0.4-0.1-0.7-0.1c-0.1,0-0.2,0-0.2,0c0,0,0,0,0,0c-1.7-0.1-3.4,0.2-5.1,0.9c-0.6,0.2-1.1,0.4-1.6,0.7
				c-0.2,0.1-0.4,0.2-0.5,0.3c-0.1,0-0.1,0.1-0.2,0.1c0,0,0,0-0.1,0c0,0-0.1,0,0,0c-0.3,0.2-0.6,0.4-0.9,0.6c-0.7,0.5-1.4,1-2,1.6
				c-1,1-2,2.1-2.7,3.3c-0.6,1-1.2,2.1-1.6,3.2c-0.4,1-0.6,2-0.8,3.1c-0.1,0.8-0.2,1.6-0.2,2.4c0,0.5,0,1.1,0,1.6
				c0,0.4,0.1,0.8,0.1,1.2c0.1,0.5,0.2,1,0.3,1.5c0.1,0.5,0.3,0.9,0.4,1.4c0,0,0,0,0,0c0.2,0.5,0.4,1,0.6,1.5
				c0.4,0.8,0.8,1.6,1.3,2.4c0,0.1,0.1,0.1,0.1,0.2c0,0,0,0,0,0.1c0,0,0,0.1,0,0.1c0.1,0.1,0.1,0.1,0.2,0.2c0.1,0.2,0.3,0.4,0.4,0.6
				c0.2,0.2,0.3,0.4,0.5,0.6c0.5,0.5,0.9,1,1.4,1.5c0.9,0.8,1.8,1.5,2.8,2c1.4,0.8,2.9,1.4,4.4,1.7c1.3,0.3,2.7,0.5,4.1,0.4
				c1,0,2.1-0.1,3.1-0.3c0.8-0.2,1.6-0.4,2.3-0.7c0.9-0.3,1.8-0.8,2.7-1.3c0.7-0.4,1.4-0.9,2-1.4c1.2-0.9,2.2-2,3.1-3.3
				c1.1-1.6,2-3.4,2.6-5.3c0.5-1.8,0.7-3.7,0.6-5.5c-0.1-2-0.6-4-1.4-5.8c-0.6-1.5-1.5-2.9-2.6-4.1c-0.1-0.1-0.2-0.3-0.3-0.4
				C32.1,8.4,32,8.3,32,8.3c0,0-0.1-0.1-0.1-0.1C31.8,8.1,31.9,8,32,8c0,0,0.1,0,0.1,0.1c0.1,0.1,0.2,0.2,0.4,0.4
				c0.6,0.6,1.2,1.3,1.7,2c1.2,1.6,2.1,3.4,2.6,5.3c0.3,1,0.5,2,0.6,3c0.1,0.8,0.1,1.7,0.1,2.6c-0.1,1-0.2,2-0.4,3
				c-0.2,1-0.5,2-0.9,2.9c-0.7,1.7-1.6,3.3-2.8,4.7c-1.1,1.4-2.5,2.6-3.9,3.6c-1.5,1-3.1,1.8-4.8,2.3c-1,0.3-2,0.5-3,0.7
				c-0.9,0.1-1.7,0.2-2.6,0.2c-0.4,0-0.9,0-1.3-0.1c-1-0.1-2.1-0.2-3.1-0.5c-1.5-0.4-2.9-0.9-4.3-1.7c-1.1-0.6-2.1-1.3-3.1-2.1
				c-0.5-0.4-1.1-0.9-1.5-1.4c-0.3-0.3-0.6-0.7-0.9-1.1c-0.9-1.1-1.7-2.3-2.4-3.6C1.9,26.9,1.4,25.4,1,24c-0.2-1.1-0.4-2.1-0.5-3.2
				c-0.1-0.7,0-1.5,0-2.2c0-0.7,0.1-1.3,0.2-2c0.2-1,0.4-1.9,0.7-2.9c0.4-1.1,0.8-2.1,1.3-3.1c0.8-1.5,1.8-2.9,2.9-4.1
				c0.9-1,1.9-1.9,3-2.6c0.7-0.5,1.5-1,2.3-1.4c1.2-0.6,2.5-1.1,3.8-1.4c0.6-0.2,1.2-0.3,1.8-0.3c0.7-0.1,1.4-0.1,2.1-0.1
				c1.6,0.1,3.3,0.5,4.8,1.3C24.8,2.6,26,3.7,26.8,5c0.8,1.2,1.3,2.6,1.5,4c0.1,1.4,0,2.7-0.5,4c-0.6,1.5-1.5,2.8-2.6,4
				c-1.3,1.4-2.9,2.5-4.5,3.4c-1.4,0.8-2.8,1.8-4,3c-0.6,0.6-1.1,1.3-1.5,2c-0.4,0.8-0.7,1.7-0.7,2.6c0,0.9,0.2,1.7,0.6,2.5
				c0.4,0.8,1.1,1.4,1.8,2c0.8,0.6,1.6,1,2.5,1.3c0.9,0.3,1.7,0.4,2.6,0.4c0.1,0,0.2,0,0.2,0c0.1,0,0.1,0,0.2,0
				C22.6,34.2,22.6,34.4,22.4,34.4z"/>
		</g>
	</g>
	<g>
		<path class="st1" d="M236.5,28.4c-0.5,0.2-0.9,0.3-1.1,0.6l0,0c-1.5,1.2-6.5,4.6-8.3,5.4c-0.6,0.3-1.2,0.5-1.7,0.8
			c-1.6,0.7-3.4,1.3-5.5,1.8c-5.2,1.1-11,1.9-18.1,2.5c-3.3,0.4-6.7,0.7-10,0.9l-1.9,0.1c-3.4,0.2-7.5,0.3-12.2,0.3
			c-6.9,0-13.3-0.2-16.4-0.4c-3.6-0.2-6.5-0.4-9.2-0.6c-1.7-0.2-5.6-0.5-9-0.9c-2.5-0.2-4.6-0.4-5.5-0.5l-2-0.3
			c-4-0.5-12.5-1.7-14.2-1.8c-1.1-0.2-2.3-0.4-3.8-0.5l-0.8-0.1c-1.8-0.3-3.7-0.5-5.4-0.7c-1.2-0.2-2.3-0.3-3.5-0.5
			c-7.4-1-15.1-2-22.9-2.2c-1.1-0.1-2.5-0.1-4.1-0.1c-7.4,0-18.9,0.6-26.9,2.5c-1.7,0.4-7.9,2.1-8.6,2.4c-0.5,0.3-0.8,0.6-0.7,0.9
			c0.1,0.3,0.5,0.5,1.2,0.5c0.6,0,1.4-0.2,2.1-0.5c2.3-0.9,4.9-1.8,7.8-2.4c2.1-0.3,4.1-0.6,6.3-1l1.1-0.1c3.5-0.4,7.2-0.9,10.8-1
			c1.7-0.1,3.5-0.1,5.5-0.1c8.3,0,17.4,0.9,25.2,1.7c2.6,0.3,4.8,0.6,6.8,0.8c3.2,0.5,6.6,0.9,9.8,1.3l6,0.8
			c3.3,0.5,6.7,0.9,9.2,1.2c3.6,0.5,6.8,0.8,10.7,1.1c3.4,0.3,7.3,0.7,11.4,0.9c0.5,0,1,0,1.5,0c1.3,0,2.6,0.1,3.9,0.2
			c1.3,0,2.7,0.1,4,0.2c1.6,0.1,3.2,0.2,4.8,0.2c0.5,0,1,0,1.5,0c5.8,0,16.4-0.3,22-0.6c1-0.1,2-0.2,2.9-0.3c1-0.1,2-0.2,3-0.3
			l1.3-0.1c18.9-1.4,27.6-5.1,33.3-10.4c0.4-0.5,0.7-0.8,0.7-1.4C237.3,28.5,236.9,28.3,236.5,28.4z"/>
		<g>
			<g>
				<path class="st0" d="M166.3,2.9c0.3,0.5,0.5,1,0.5,1.6c0.1,1.9-0.8,4.2-1.5,5.5c-0.7,1-1.4,2-2.4,2.9c-0.6,0.7-1.2,1.3-1.8,1.9
					c-0.6,0.6-1.3,1.2-1.9,1.7c-0.1,0.1-0.2,0.2-0.3,0.4c0.3-0.1,0.6-0.1,0.7-0.1c2.1-0.2,4.1,0.6,5,1.7c1.1,1.2,1.2,2.4,0.5,4.4
					c-0.8,2.3-2.2,4.2-4.3,5.6c-1.3,0.9-2.8,1.7-4.3,2.3c-1.9,0.7-4.2,1-4.4-1.1c0.1,0,0.2,0,0.3-0.1c0.1,0.1,0.2,0.1,0.3,0.2
					c0.8,0.5,1.5,0.4,2.4,0.2c1-0.3,2-0.6,2.9-1.2c1.1-0.5,2.1-1.2,3.1-1.9c1.3-1.1,2.3-2.3,2.9-3.9c0.5-1.5,0.8-2.8-0.2-4
					c-0.9-1.1-1.9-1.5-3.2-1.4c-1.5,0.2-3,0.7-4.3,1.7c-0.5,0.4-1,0.8-1.5,1.2c-0.2,0.1-0.5,0.2-0.8,0.4c-0.4,0.1-0.8-0.3-0.7-0.7
					c0.1-0.3,0.2-0.6,0.5-0.8c0.2-0.2,0.4-0.3,0.7-0.5c1.1-0.8,2.2-1.6,3.3-2.5c1.3-1.1,2.3-2.2,3.6-3.3c0.8-0.7,1.6-1.4,2.3-2.3
					c1-1.4,1.7-2.7,2.1-4.4c0.7-2.5-0.3-4.4-2.8-2.9c-0.4,0.2-0.8,0.5-1.2,0.8c-0.8,0.6-1.5,1.2-2.2,1.8c-1,1.2-2.1,2.3-2.9,3.6
					c-2.1,3-2.1,2.8-3.6,6c-0.8,1.7-1.8,4.1-2.3,5.9c-0.6,1.7-1,3.5-1.4,5.2c0,0.4-0.1,0.6-0.1,1c0,0.5-0.2,1-0.2,1.5
					c0,0.1,0,0.2-0.1,0.2c-0.1,0.4-0.3,0.6-0.7,0.6c-0.4,0-0.8-0.2-0.9-0.6c-0.1-0.1-0.1-0.2-0.1-0.2c-0.6-6.7-1.2-12.1-1.8-17.8
					c-0.1-1-0.2-1.9-0.3-2.8c0-0.1-0.1-0.3-0.1-0.5c0-0.3,0.3-0.5,0.6-0.3c0.3,0.1,0.4,0.4,0.5,0.7c0,0.6,0.2,1.2,0.3,1.9
					c0.3,2.6,0.7,5,0.9,7.5c0.4,3.9,0.2,3.5,0.7,7c0.2-0.9,0.6-2,0.8-2.7c0.1-0.4,0.2-0.7,0.4-1c0.2-0.4,1.7-3.8,2.1-4.8
					c0.5-1,2.2-4,2.4-4.4c0.8-1.3,2.3-3.5,3.8-5.4c0.8-1.1,1.8-1.9,2.9-2.8c0.6-0.5,1.3-0.9,1.9-1.3C163.8,1.7,165.1,1.2,166.3,2.9z
					"/>
				<path class="st0" d="M175,17.9c-1.2,7.2-1.7,10.4,2.3,6.6c0.5-0.5,1.9-2.3,2-2.5c0.6-0.8,1.1-1.4,1.5-2.3c0.2-0.4,0.7,0,0.4,0.6
					c-1.1,2.2-3.4,5.7-5.6,6.6c-1.5,0.6-2.6-0.1-2.7-3.5c0-1.4,0.9-4.6,1-4.8c-2.3,3.5-6.2,8.6-6.6,5.1c-0.1-1.1,0.8-5.6,1.3-5.6
					c0.3,0,0.4,0.2,0.5,0.3c0.1,0.2,0.1,0.4,0.1,0.6c0,0.1-0.8,3-0.8,3.7c-0.7,3,3.3-3.1,5.5-5.4c0.3-0.4,0.7-0.3,0.9,0
					C175.1,17.4,175.1,17.6,175,17.9z"/>
				<path class="st0" d="M182.4,18.1c0.1,0.2,0.1,0.4,0.1,0.6c0,0.1-0.9,3.5-0.9,3.7c0.1,0.5,1.6-0.8,2.2-1.5c0.3-0.4,0.7-0.9,1-1.2
					c0.4-0.5,0.8-0.9,1.2-1.4c0.3-0.4,0.7-0.5,1.1-0.2c0.2,0.1,0.2,0.3,0.2,0.6c0.2,1.7,0.4,3.7,0.6,5.4c0,0,0,0.5,0,0.5
					c0-0.2,2.1-2,4.2-5.2c0.5-0.8,0.7-0.5,0.8-0.3c0.1,0.4-0.4,1.5-1.7,3.1c-0.4,0.5-1,1.4-1.5,1.7c-0.3,0.4-1.4,1.5-1.7,1.8v1
					c0,1.8-0.2,3.7-0.9,5.4l-0.9,2.4c-0.6,1.1-1.3,2.1-2.3,2.9c-0.9,1-2.4,1.4-3.1,0.3c-0.6-1.2-0.5-2.3-0.2-3.4
					c0.5-2.1,2.1-4.3,3.8-6.2c0.8-0.8,1.5-1.7,2.2-2.5c0.3-0.3,0.4-0.6,0.4-0.6c0-0.2,0-0.7-0.1-1c-0.1-1.3-0.3-2.5-0.5-3.7
					c0-0.2-0.1-0.6-0.1-0.8c-0.2,0.3-0.6,0.8-0.8,1c-0.2,0.3-0.5,0.6-0.7,0.9c-1.3,1.3-3.4,2.8-4,2.6c-0.2,0.1-0.4,0-0.6-0.2
					c-0.2-0.2-0.3-0.6-0.3-0.9c0.1-0.5,0.2-0.8,0.4-1.3c1-3.3,1.1-3.6,1.2-3.8c0-0.2,0.2-0.4,0.4-0.4
					C182.2,17.8,182.3,18,182.4,18.1z M186.7,26.8c-0.9,1-2.1,2.3-3.1,3.4c-1,1.2-1.7,2.4-2.3,3.8c-0.1,0.5-0.3,1-0.3,1.4
					c0,0.6,0,1,0.2,1.4c0.2,0.4,0.5,0.4,0.9,0.3c0.4-0.2,0.7-0.4,0.9-0.7c0.6-0.4,1.3-1.1,1.9-2.2c0.7-1.4,1.2-2.7,1.6-4.2
					c0.3-1.7,0.6-2.7,0.6-3.7C187,26.6,186.8,26.7,186.7,26.8z"/>
				<path class="st0" d="M192.8,19.8c0.2,0,0.4-0.1,0.5-0.2c0.5-0.2,1.7-0.9,2-1c0.3-0.1,0.6-0.1,0.8,0.1c0.4,0.4,0.3,1,0.2,1.5
					c-0.1,0.8-0.3,1.5-0.4,2.2c-0.4,1.4-0.8,3.7-0.7,5.1c0.1,0.5,0.1,1.1,0.4,1.6c0.1,0.2,0.1,0.3,0,0.4c-0.1,0.2-0.3,0.2-0.5,0.1
					c-0.3-0.1-0.5-0.3-0.6-0.6c0-0.2-0.1-0.4-0.1-0.5c-0.2-1-0.3-2-0.1-3.5c0.1-0.8,0.6-2.7,1-4c0.3-0.8,0.4-1.7,0.2-1.7
					c-0.2,0-0.2,0.1-0.4,0.1c-0.7,0.4-1.3,0.8-2,1.1c-0.2,0.2-1.2,0.7-1.9,0.7c-1.5,0.2-2-0.6-1.8-1.7c0.1-0.3,0.1-0.6,0.2-0.8
					c0.4-0.9,1-1.7,1.6-2.4c0.4-0.5,0.9-0.6,1.5-0.3C193.4,16.8,193.5,17.7,192.8,19.8z M190.5,19.4c-0.2,0.7-0.4,1.2,0.1,1.2
					c0.2,0,0.4-0.1,0.6-0.1c0.3-0.1,0.4-0.2,0.5-0.5c0.3-0.6,0.6-1.8,0.6-2.6c0-0.4-0.3-0.5-0.6-0.2
					C191.5,17.3,190.9,18.3,190.5,19.4z"/>
				<path class="st0" d="M205.6,17.9c-1.2,7.2-1.7,10.4,2.3,6.6c0.5-0.5,1.9-2.3,2-2.5c0.6-0.8,1.1-1.4,1.5-2.3
					c0.2-0.4,0.7,0,0.4,0.6c-1.1,2.2-3.4,5.7-5.6,6.6c-1.5,0.6-2.6-0.1-2.7-3.5c0-1.4,0.9-4.6,1-4.8c-2.3,3.5-6.2,8.6-6.6,5.1
					c-0.1-1.1,0.8-5.6,1.3-5.6c0.3,0,0.4,0.2,0.5,0.3c0.1,0.2,0.1,0.4,0.1,0.6c0,0.1-0.8,3-0.8,3.7c-0.7,3,3.3-3.1,5.5-5.4
					c0.3-0.4,0.7-0.3,0.9,0C205.7,17.4,205.7,17.6,205.6,17.9z"/>
				<path class="st0" d="M213.1,9.2c0.2,0.1,0.3,0.7,0.2,1.3c-0.1,4.8-0.5,6.1-1.1,11.2c0.1-0.1,0.3-0.2,0.4-0.2
					c1.9-1.1,4.3-2.5,6.2-3.9c0.1,0,0.2-0.2,0.4-0.3c0.4-0.3,0.5-0.3,0.6-0.5c0.3-0.3,0.5,0.6,0.2,0.9c-0.3,0.4-0.8,0.8-1.1,1
					c-0.6,0.6-1.3,1-2,1.4c-1.3,0.9-1.9,1.3-5,2.8c0,0-0.1,1-0.1,1.5c0,0,0.9,0.4,1.6,0.6c1.8,0.6,2.7,0.6,3.6,0.7
					c0.4,0.1,0.9,0,1.2-0.5c0.2-0.4,0.5-0.3,0.5,0.1c0,0.4,0,0.5,0.1,0.9c0,0.4-0.3,0.6-0.6,0.6c-0.2,0-0.5,0-0.7,0
					c-1.4-0.1-4.4-0.7-5.8-1.3c0,0-0.3,2.2-0.2,3c0,0.1,0,0.5-0.4,0.5c-0.2,0-0.3-0.2-0.5-0.5c-0.1-0.2-0.1-0.5-0.1-0.7
					c-0.1-0.8,0.2-2.1,0.2-2.8c-0.2-0.1-1.2-0.6-1.4-0.8c-0.4-0.3-0.7-0.5-0.8-1c0-0.1,0-0.3,0.2-0.4c0.1,0,0.4-0.1,0.6-0.1
					c1.1-0.3,1.9-0.7,1.9-0.7c0.2-1.1,0.8-5.5,1-8.1l0.2-2.5c0.1-0.6,0-1.1,0.1-1.7c0-0.6,0.2-0.7,0.5-0.8
					C213,9.2,213.1,9.2,213.1,9.2z M210.9,23.4c-0.1,0-0.8,0.3-1,0.2c0.2,0.4,0.8,0.6,0.8,0.6L210.9,23.4z"/>
				<path class="st0" d="M231.2,21.3c-0.1,0.3-1.4,2.3-2.9,4.4c-1.2,1.4-2.5,2.1-4.2,2.5c-0.3,0.1-0.6,0.1-0.9,0c0,0.2,0,0.4,0,0.6
					l-0.1,0.5v0.2c0.1,0,0.2-0.1,0.3-0.1c0.4-0.1,0.8-0.2,1.3-0.1c0.5,0.1,0.8,0.4,1,0.8c0.1,0.1,0.1,0.2,0.1,0.4
					c-0.1,0.2-0.2,0.5-0.4,0.6c-0.1,0.1-0.2,0.2-0.4,0.3c-0.1,0.1-0.2,0.1-0.3,0.2c-2.7,1.4-2.5,0.5-2.5,0.3c0.1-0.4,0.7,0,2.3-0.9
					c0.4-0.2,0.6-0.4,0.7-0.8c0,0,0-0.1,0-0.2c0-0.2,0-0.3-0.2-0.3c-0.5-0.1-0.9,0-1.3,0.2c-0.2,0.1-0.5,0.2-0.7,0.4
					c-0.1,0.1-0.2,0.1-0.4,0l-0.1-0.1c-0.2-0.1-0.2-0.4-0.2-0.5c0-0.1,0-0.2,0.1-0.3c0.1-0.4,0.1-0.9,0.2-1.3v0
					c-1.4-0.4-1.8-1.1-1.9-2c-0.1-1,0.2-2,0.3-2.9c0.1-0.8,0.6-3.3,1.5-4.1c0.2-0.3,0.7-0.4,1.2-0.5c0.5-0.1,1.1,0.1,1.4,0.3
					l1.1,0.7c0.2,0.1,0.3,0.2,0.3,0.4c0,0.1,0,0.2,0,0.3c-0.5,0.3-1.2-0.4-1.6-0.7c-0.2-0.1-0.4-0.3-0.6-0.3c-0.9-0.1-1.4,1-1.6,1.4
					c-0.4,1.1-0.5,1.9-0.7,2.6c-0.1,0.4,0,0.8-0.1,1.2c-0.1,0.3-0.1,0.7-0.1,1c-0.1,1.7,1.2,2.1,2.1,1.9c0.7-0.2,1.3-0.5,1.9-0.9
					c0.9-0.7,1.9-1.7,2.7-2.6c0.9-1,1.3-1.7,1.7-2.6C231.6,18.8,231.4,21.1,231.2,21.3z"/>
				<path class="st0" d="M238,17.9c-1.2,7.2-1.7,10.4,2.3,6.6c0.5-0.5,1.9-2.3,2-2.5c0.6-0.8,1.1-1.4,1.5-2.3c0.2-0.4,0.7,0,0.4,0.6
					c-1.1,2.2-3.4,5.7-5.6,6.6c-1.5,0.6-2.6-0.1-2.7-3.5c0-1.4,0.9-4.6,1-4.8c-2.3,3.5-6.2,8.6-6.6,5.1c-0.1-1.1,0.8-5.6,1.3-5.6
					c0.3,0,0.4,0.2,0.5,0.3c0.1,0.2,0.1,0.4,0.1,0.6c0,0.1-0.8,3-0.8,3.7c-0.7,3,3.3-3.1,5.5-5.4c0.3-0.4,0.7-0.3,0.9,0
					C238.1,17.4,238.1,17.6,238,17.9z"/>
			</g>
			<g>
				<path class="st0" d="M100.8,2.9c0.3,0.5,0.5,1,0.5,1.6c0.1,1.9-0.8,4.2-1.5,5.5c-0.7,1-1.4,2-2.4,2.9c-0.6,0.7-1.2,1.3-1.8,1.9
					c-0.6,0.6-1.3,1.2-1.9,1.7c-0.1,0.1-0.2,0.2-0.3,0.4c0.3-0.1,0.6-0.1,0.7-0.1c2.1-0.2,4.1,0.6,5,1.7c1.1,1.2,1.2,2.4,0.5,4.4
					c-0.8,2.3-2.2,4.2-4.3,5.6c-1.3,0.9-2.8,1.7-4.3,2.3c-1.9,0.7-4.2,1-4.4-1.1c0.1,0,0.2,0,0.3-0.1c0.1,0.1,0.2,0.1,0.3,0.2
					c0.8,0.5,1.6,0.4,2.4,0.2c1-0.3,2-0.6,2.9-1.2c1.1-0.5,2.1-1.2,3.1-1.9c1.3-1.1,2.3-2.3,2.9-3.9c0.5-1.5,0.8-2.8-0.2-4
					c-0.9-1.1-1.9-1.5-3.2-1.4c-1.6,0.2-3,0.7-4.3,1.7c-0.5,0.4-1,0.8-1.5,1.2c-0.2,0.1-0.5,0.2-0.8,0.4c-0.4,0.1-0.8-0.3-0.7-0.7
					c0.1-0.3,0.2-0.6,0.5-0.8c0.2-0.2,0.4-0.3,0.7-0.5c1.1-0.8,2.2-1.6,3.3-2.5c1.3-1.1,2.3-2.2,3.6-3.3c0.8-0.7,1.6-1.4,2.3-2.3
					c1-1.4,1.7-2.7,2.1-4.4c0.7-2.5-0.3-4.4-2.8-2.9C97,3.7,96.6,4,96.2,4.2c-0.8,0.6-1.5,1.2-2.2,1.8c-1,1.2-2.1,2.3-2.9,3.6
					c-2.1,3-2.1,2.8-3.6,6c-0.8,1.7-1.8,4.1-2.3,5.9c-0.6,1.7-1,3.5-1.4,5.2c0,0.4-0.1,0.6-0.1,1c0,0.5-0.2,1-0.2,1.5
					c0,0.1,0,0.2-0.1,0.2C83.2,29.8,83,30,82.6,30c-0.4,0-0.8-0.2-0.9-0.6c-0.1-0.1-0.1-0.2-0.1-0.2C81,22.5,80.4,17,79.8,11.4
					c-0.1-1-0.2-1.9-0.3-2.8c0-0.1-0.1-0.3-0.1-0.5c0-0.3,0.3-0.5,0.6-0.3c0.3,0.1,0.4,0.4,0.5,0.7c0,0.6,0.2,1.2,0.3,1.9
					c0.3,2.6,0.7,5,0.9,7.5c0.4,3.9,0.2,3.5,0.7,7c0.2-0.9,0.6-2,0.8-2.7c0.1-0.4,0.2-0.7,0.4-1c0.2-0.4,1.7-3.8,2.1-4.8
					c0.5-1,2.2-4,2.4-4.4c0.8-1.3,2.3-3.5,3.8-5.4c0.8-1.1,1.8-1.9,2.9-2.8c0.6-0.5,1.3-0.9,1.9-1.3C98.3,1.7,99.6,1.2,100.8,2.9z"
					/>
				<path class="st0" d="M109.5,17.9c-1.2,7.2-1.7,10.4,2.3,6.6c0.5-0.5,1.9-2.3,2-2.5c0.6-0.8,1.1-1.4,1.5-2.3
					c0.2-0.4,0.7,0,0.4,0.6c-1.1,2.2-3.4,5.7-5.6,6.6c-1.5,0.6-2.6-0.1-2.7-3.5c0-1.4,0.9-4.6,1-4.8c-2.3,3.5-6.2,8.6-6.6,5.1
					c-0.1-1.1,0.8-5.6,1.3-5.6c0.3,0,0.4,0.2,0.5,0.3c0.1,0.2,0.1,0.4,0.1,0.6c0,0.1-0.8,3-0.8,3.7c-0.7,3,3.3-3.1,5.5-5.4
					c0.3-0.4,0.7-0.3,0.9,0C109.5,17.4,109.6,17.6,109.5,17.9z"/>
				<path class="st0" d="M118.8,19.4c0,0.1,0.1,0.1,0.2,0.2c0.2-0.1,0.3-0.1,0.5-0.2c0.6-0.4,1.1-0.3,1.3,0.4c0.2,0.7,0,3.2,0,3.8
					c1.8-1.3,3-2.4,4.4-3.8c1.4-1.4,1.2-0.1,0.3,1c-1.5,1.6-3.6,3-4.7,4l0,0.8c-0.1,1.1-0.1,1.9-0.2,3c-0.1,0.9-0.2,1.7-0.4,2.7
					c-0.1,0.5-1.3,5.1-4.3,7.1c-0.9,0.6-2.4,0.7-2.9-0.3c-0.9-2.3,0.4-4.4,1.1-5.9c2.2-4.2,3.2-5.2,5.5-7.7l0.3-0.3
					c0,0.8,0.2-2.4,0.1-3.2c0-0.2,0-0.5,0-0.7c-0.2,0.1-1,0.7-1.2,1c-1,0.9-2.1,1.8-3.2,2.7c-1.2,0.8-2.5,0.8-2.8,0.2
					c-0.4-0.8,0.7-3.3,2-4.3c0.8-0.6,1.7-0.9,2.7-1C118,18.8,118.5,19,118.8,19.4z M118.7,27.1c-0.4,0.5-1.1,1.4-1.3,1.8
					c-1.2,1.9-2,2.9-3,5.2c-0.6,1.2-1,2.3-0.3,3.4c0.2,0.2,0.5,0.4,0.8,0.2c0.7-0.2,1.8-1.3,2.6-2.4c0.8-1.3,1.9-3.5,2.3-7.3
					c0.1-0.8,0.2-1.4,0.2-2.3C119.7,25.9,118.9,26.9,118.7,27.1z M114.5,22.6c0,0,0,0.1-0.1,0.3c-0.3,1.1,4.1-2.3,4.2-2.4
					c-0.4-0.5-0.8-0.5-1.3-0.3C116,20.6,115.2,21.4,114.5,22.6z"/>
				<path class="st0" d="M126,19.8c0.2,0,0.4-0.1,0.5-0.2c0.5-0.2,1.7-0.9,2-1c0.3-0.1,0.6-0.1,0.8,0.1c0.4,0.4,0.3,1,0.2,1.5
					c-0.1,0.8-0.3,1.5-0.4,2.2c-0.4,1.4-0.8,3.7-0.7,5.1c0.1,0.5,0.1,1.1,0.4,1.6c0.1,0.2,0.1,0.3,0,0.4c-0.1,0.2-0.3,0.2-0.5,0.1
					c-0.3-0.1-0.5-0.3-0.6-0.6c0-0.2-0.1-0.4-0.1-0.5c-0.2-1-0.3-2-0.1-3.5c0.1-0.8,0.6-2.7,1-4c0.3-0.8,0.4-1.7,0.2-1.7
					c-0.2,0-0.2,0.1-0.4,0.1c-0.7,0.4-1.3,0.8-2,1.1c-0.2,0.2-1.2,0.7-1.9,0.7c-1.5,0.2-2-0.6-1.8-1.7c0.1-0.3,0.1-0.6,0.2-0.8
					c0.4-0.9,1-1.7,1.6-2.4c0.4-0.5,0.9-0.6,1.5-0.3C126.7,16.8,126.7,17.7,126,19.8z M123.8,19.4c-0.2,0.7-0.4,1.2,0.1,1.2
					c0.2,0,0.4-0.1,0.6-0.1c0.3-0.1,0.4-0.2,0.5-0.5c0.3-0.6,0.6-1.8,0.6-2.6c0-0.4-0.3-0.5-0.6-0.2
					C124.8,17.3,124.1,18.3,123.8,19.4z"/>
				<path class="st0" d="M143.5,20.6c-0.5,0.6-3.2,5.1-3.7,5.8c-0.2,0.2-0.3,0.4-0.4,0.6c-0.3,0.5-0.8,1-1.5,1.2
					c-0.8,0.5-2.1,0.1-2.3-1c-0.1-0.3-0.1-0.6-0.1-1c0-0.9,0-1.9,0.1-2.8c0.1-0.8,0.2-1.6,0.4-2.4c-0.1,0.2-1.6,2.3-3.2,3.4
					c-1.3,0.9-2.2-0.2-2.2-1.5c0-1,0.5-1.9,1-2.7c0.5-0.9,1.5-1.9,2.8-1.5c0.4,0.1,0.9,0.2,1.4,0.6c0.1,0,0.2-0.1,0.3-0.3
					c0.1-0.1,0.4-1,0.9-0.8c0.5,0.1,0.4,0.6,0.4,1.1c-0.1,0.7-0.2,1.4-0.3,2.1c-0.1,0.6-0.2,1.3-0.3,2c-0.2,1.2-0.2,1.7-0.3,2.5
					c0,0.8,0,1,0.2,1.5c0,0.1,0.1,0.2,0.2,0.1c0.6-0.1,1.2-0.7,1.7-1.2c0.5-0.6,2.4-3.2,2.9-3.9c0.2-0.2,0.9-1.5,1.2-1.9
					c0.1-0.2,0.2-0.2,0.4-0.1c0.2,0.1,0.1,0.1,0.4,0.2C143.4,20.5,143.5,20.5,143.5,20.6z M134.3,19.4c-0.3,0-0.4,0-0.7,0.2
					c-0.6,0.5-2.1,3.1-1.7,4.4c0.2,0.1,0.4,0,0.5-0.2c0.9-0.8,2.5-2.5,3.1-3.7C135.6,19.9,135,19.5,134.3,19.4z M136,21.1
					 M136.1,20.9C136.1,20.9,136.1,20.9,136.1,20.9L136.1,20.9z"/>
				<path class="st0" d="M120.1,15.8l-0.2-0.1c0,0-0.1-0.1-0.2-0.1l-0.1,0l-0.3,0.3l0,0.2l0,0.1c0,0.1-0.1,0.1-0.2,0.2
					c0,0-0.1,0.1-0.1,0.1l-0.1,0.1c-0.1,0.1-0.2,0.1-0.3,0.2c-0.1,0.1-0.2,0.1-0.4,0.2c-0.2,0.1-0.4,0.1-0.6,0.2c0,0-0.1,0-0.1,0
					l-0.1,0c-0.1,0-0.1,0-0.2,0c-0.1,0-0.3,0.1-0.4,0.1l-0.5,0.1c-0.2,0-0.4,0-0.6,0c-0.1,0-0.2,0-0.4,0c-0.1,0-0.2,0-0.3,0
					c-0.3,0-0.5,0-0.6,0.1c-0.2,0.1-0.6,0.2-0.9,0.7c-0.1,0.1-0.1,0.4,0,0.6l0.1,0.2h0.2l0.2,0l0.1-0.2c0.2-0.4,0.2-0.4,0.5-0.4
					c0.2,0,0.8-0.1,1.1-0.1l0.4,0c0.1,0,0.1,0,0.2,0c0.2,0,0.4,0,0.6-0.1c0.2,0,0.4-0.1,0.5-0.1l0.1,0c0.1,0,0.2,0,0.3-0.1l0.1,0
					c0.1,0,0.2,0,0.3-0.1c0.1,0,0.1,0,0.2-0.1l0.2-0.1c0.1,0,0.2-0.1,0.3-0.1c0.1,0,0.3-0.1,0.3-0.2c0.1,0,0.2-0.1,0.3-0.2
					c0,0,0.1,0,0.1-0.1c0,0,0.1-0.1,0.1-0.1c0.1-0.1,0.1-0.1,0.2-0.2c0.1-0.1,0.2-0.3,0.3-0.5c0-0.1,0.1-0.1,0.1-0.2l0-0.2
					L120.1,15.8z"/>
			</g>
			<g>
				<path class="st0" d="M65.2,10.5c0.1,1.8,0.1,3.6,0,5.3c-0.1,1-0.3,1.9-0.5,2.8c-0.5,1.9-1.4,3.8-2.4,5.5c-0.5,1-1.2,1.8-1.9,2.5
					c-0.7,0.8-1.6,1.6-2.4,2.2c-1.6,1.5-4.5,3.1-6.8,2c-0.7-0.4-1.2-0.9-1.5-1.8c0,0,0-0.1,0-0.2c0.2,0.2,0.3,0.3,0.5,0.5
					c0.8,0.8,1.7,1.1,2.7,0.9c1.2-0.2,2.2-0.7,3.2-1.4c1.3-0.9,2.4-2,3.5-3.2c0.9-1,1.7-2,2.4-3.2c1.8-3.2,2.5-7.9,2.2-12.2
					c-0.2-2.2-0.5-3.8-1.4-5.8c-1.3-3-2.5-3.4-5.3-0.6c-0.3,0.3-0.6,0.6-0.9,0.9C55.1,6.3,54,8,53,9.9c-1.3,2.3-2.2,4.8-3.2,7.3
					c-0.5,1.1-0.9,2.3-1.3,3.4c-0.4,1.1-0.8,2.2-1.1,3.3c-0.2,0.9-0.5,1.7-0.6,2.7c-0.2,1-0.3,2.1-0.2,3.2c0,0.5,0,1-0.1,1.6
					c0,0.4-0.3,0.5-0.6,0.3c-0.3-0.2-0.5-0.5-0.5-1c0-0.5-0.1-1-0.1-1.5c0.1-1.8,0-3.7-0.2-5.5c-0.1-1.9-0.1-3.8-0.2-5.6
					c-0.2-2.8-0.3-5.7-0.5-8.4c-0.1-1.6-0.1-3.2-0.1-4.7c0-0.2,0-0.4,0.2-0.4c0.2-0.1,0.5,0,0.6,0.2c0.1,0.1,0.2,0.3,0.2,0.6
					c0.2,0.7,0.2,1.6,0.3,2.4c0,1.4,0.1,2.7,0.2,4c0.1,2.2,0.2,4.3,0.3,6.5c0,1.2,0.1,2.4,0.1,3.6c0,0.2,0,0.4,0,0.6
					c0,0,0.1,0,0.1,0l0.1-0.4c0.7-1.9,1.4-3.6,2.1-5.3c1-2.6,2.2-5.1,3.4-7.5C54.8,4,59.9-1.3,62.6,1.9C64.5,4.2,65,7.4,65.2,10.5z"
					/>
				<path class="st0" d="M68.9,17.8c0.5,0.7,0.4,2.2,0.4,2.5v0.2c1.3-0.5,2.6-1.7,3.3-2.3c0.4-0.2,0.7-0.2,1-0.2
					c0.3,0,0.4,0.2,0.3,0.5c-0.2,1-0.8,3.5-0.8,3.9c-0.6,3.9-0.6,5-0.4,6.6c0.1,0.7,0.7,0.7,0.2,1.1c-0.2,0.2-0.5,0.2-0.7,0.1
					c-0.9-0.8-0.9-2.5-0.7-4.2c0.2-2.4,0.7-4.1,1.2-6.3c0,0,0-0.2,0-0.3c-0.1,0.1-0.3,0.2-0.4,0.3c-0.5,0.4-1.7,1.2-3,1.9
					c-0.2,0.1-0.2,0-0.2,0.2c-0.1,0.5-0.3,0.9-0.7,1.8c-0.5,0.9-0.9,1.6-1.5,1.8c-0.1,0-0.2,0-0.3-0.1c-0.2-0.3,0.1-0.5,0.2-0.8
					c0.6-0.8,1-1.7,1.2-2.4l0.1-0.3c-0.2-0.1-0.4-0.1-0.5-0.2c-1.1-0.6-1.4-1.3-1.1-2.5c0.2-0.7,0.5-1.2,1-1.6
					C68,17.1,68.6,17.2,68.9,17.8z M67.3,19.9c0,0.5,0.2,0.7,0.7,0.7c0.3,0,0.4-0.1,0.4-0.3c0.1-0.7,0.2-1.3-0.1-2
					C68.1,17.6,67.1,18.7,67.3,19.9z"/>
				<path class="st0" d="M77.4,28.3c0.1,0.6-0.1,1.2-0.5,1.7c-0.1,0.2-0.5,0.4-1,0.2c-0.1-0.1-0.2-0.1-0.3-0.4c-0.2-0.3-0.1-0.7,0-1
					c0.1-0.4,0.6-0.8,1-1C77,27.9,77.3,27.9,77.4,28.3z"/>
			</g>
		</g>
	</g>
</g>
</svg>
