<?xml version="1.0" encoding="utf-8"?>
<!-- Generator: Adobe Illustrator 22.0.0, SVG Export Plug-In . SVG Version: 6.00 Build 0)  -->
<svg version="1.1" id="Layer_1" xmlns="http://www.w3.org/2000/svg" xmlns:xlink="http://www.w3.org/1999/xlink" x="0px" y="0px"
	 width="200px" height="97.2px" viewBox="0 0 200 97.2" style="enable-background:new 0 0 200 97.2;" xml:space="preserve">
<style type="text/css">
	.st0{fill:#00718E;}
	.st1{fill:#EB008B;}
</style>
<g>
	<g>
		<g>
			<g>
				<path class="st0" d="M100.8,18.3c0,0-0.1,0-0.2-0.1c0,0,0,0-0.1,0c0,0-0.1,0-0.1,0c-0.1,0-0.1-0.1-0.2-0.1c0,0-0.1,0-0.1-0.1
					c0,0-0.1,0-0.1-0.1c-0.1,0-0.1-0.1-0.2-0.1c-0.3-0.2-0.7-0.5-1-0.8c-0.3-0.4-0.7-0.8-0.9-1.4c-0.2-0.6-0.3-1.2-0.3-1.9l0,0
					c0,0,0-0.1,0-0.1l0,0l0,0l0,0l0-0.1l0-0.1l0-0.1l0,0l0,0c0-0.1,0-0.2,0.1-0.3c0-0.1,0-0.2,0.1-0.3c0.1-0.2,0.1-0.3,0.2-0.5
					c0-0.1,0.1-0.2,0.1-0.2c0-0.1,0.1-0.2,0.1-0.2c0.3-0.6,0.9-1.2,1.5-1.6c0.6-0.4,1.4-0.6,2.1-0.7l0.3,0h0.1h0h0c0.1,0,0,0,0,0h0
					l0.1,0l0.2,0c0.1,0,0.2,0,0.3,0.1l0.1,0c0,0,0.1,0,0.1,0l0.3,0.1c0.1,0,0.2,0.1,0.3,0.1c0.1,0,0.2,0.1,0.2,0.1
					c0.6,0.3,1.2,0.8,1.5,1.3c0.4,0.5,0.6,1.1,0.7,1.7c0,0.3,0,0.6,0,0.9l0,0.1l0,0l0,0.1c0,0.1,0,0.1,0,0.2c0,0.1,0,0.1,0,0.2
					c0,0.1,0,0.1,0,0.2c-0.1,0.2-0.2,0.5-0.3,0.7c-0.1,0.2-0.2,0.4-0.3,0.5c-0.2,0.3-0.5,0.6-0.7,0.7c-0.1,0.1-0.2,0.2-0.3,0.2
					c-0.1,0.1-0.2,0.1-0.2,0.1c-0.1,0.1-0.2,0.1-0.2,0.1c-0.1,0-0.2,0-0.2-0.1c0-0.1,0-0.2,0.1-0.2l0,0c0,0,0.1,0,0.2-0.1
					c0.1,0,0.1-0.1,0.2-0.1c0.1-0.1,0.2-0.1,0.3-0.2c0.2-0.2,0.4-0.4,0.6-0.7c0.1-0.1,0.2-0.3,0.2-0.5c0.1-0.2,0.1-0.4,0.2-0.6
					c0-0.1,0-0.1,0-0.2c0-0.1,0-0.1,0-0.2c0-0.1,0-0.1,0-0.2l0,0l0,0l0-0.1c0-0.2,0-0.4-0.1-0.7c-0.1-0.4-0.3-0.9-0.7-1.3
					c-0.3-0.4-0.7-0.7-1.2-0.8c-0.1,0-0.1,0-0.2-0.1c-0.1,0-0.1,0-0.2-0.1l-0.2,0c0,0-0.1,0-0.1,0l-0.1,0l-0.2,0l-0.2,0h-0.1h0
					c0,0,0,0,0,0l0,0l0,0l0,0l-0.2,0c-0.2,0-0.5,0.1-0.7,0.2c-0.2,0.1-0.4,0.2-0.6,0.4c-0.4,0.3-0.6,0.7-0.8,1.1c0,0,0,0.1-0.1,0.1
					c0,0.1,0,0.1,0,0.1c0,0.1,0,0.2-0.1,0.3c0,0.1,0,0.1,0,0.1c0,0,0,0.1,0,0.1c0,0,0,0,0,0v0v0.1v0.1l0,0.1l0,0.1v0v0
					c0,0,0-0.1,0,0l0,0c0,0.4,0.1,0.7,0.3,1c0.2,0.3,0.3,0.5,0.5,0.7c0.2,0.2,0.4,0.3,0.5,0.3c0,0,0.1,0,0.1,0c0,0,0,0,0.1,0
					c0,0,0,0,0,0c0,0,0,0,0.1,0c0,0,0,0,0,0c0,0,0,0,0.1,0c0.1,0,0.2,0.1,0.2,0.1c0.7,0.2,1.1,0.9,0.9,1.6c-0.2,0.7-0.9,1.1-1.6,0.9
					C100.9,18.3,100.8,18.3,100.8,18.3z"/>
				<path class="st0" d="M101.6,38.2c0,0-0.1,0-0.2,0.1c0,0,0,0-0.1,0c0,0,0,0,0,0c0,0,0,0-0.1,0c0,0,0,0,0,0c0,0,0,0-0.1,0
					c0,0-0.1,0-0.1,0c-0.2,0.1-0.3,0.2-0.5,0.3c-0.2,0.2-0.4,0.4-0.5,0.7c-0.2,0.3-0.3,0.6-0.3,1v0c0,0,0-0.1,0,0l0,0v0v0.1l0,0.1
					v0.1v0.1v0c0,0,0,0,0,0c0,0,0,0.1,0,0.1c0,0,0,0.1,0,0.1c0,0.1,0,0.2,0.1,0.3c0,0.1,0,0.1,0,0.1c0,0.1,0,0.1,0.1,0.1
					c0.2,0.4,0.4,0.8,0.8,1.1c0.2,0.1,0.4,0.3,0.6,0.4c0.2,0.1,0.5,0.2,0.7,0.2l0.2,0l0,0l0,0l0,0c-0.1,0,0,0,0,0h0l0.1,0h0.2l0.2,0
					l0.1,0c0,0,0.1,0,0.1,0l0.2,0c0.1,0,0.1,0,0.2-0.1c0.1,0,0.1,0,0.2-0.1c0.5-0.2,0.9-0.5,1.2-0.8c0.3-0.4,0.6-0.8,0.7-1.3
					c0.1-0.2,0.1-0.5,0.1-0.7l0-0.1l0,0l0,0c0-0.1,0-0.1,0-0.2c0-0.1,0-0.1,0-0.2c0-0.1,0-0.1,0-0.2c0-0.2-0.1-0.4-0.2-0.6
					c-0.1-0.2-0.1-0.3-0.2-0.5c-0.2-0.3-0.4-0.5-0.6-0.7c-0.1-0.1-0.2-0.2-0.3-0.2c-0.1-0.1-0.1-0.1-0.2-0.1
					c-0.1-0.1-0.2-0.1-0.2-0.1l0,0c-0.1-0.1-0.1-0.2-0.1-0.2c0-0.1,0.1-0.1,0.2-0.1c0,0,0.1,0,0.2,0.1c0.1,0,0.1,0.1,0.2,0.1
					c0.1,0.1,0.2,0.1,0.3,0.2c0.2,0.2,0.5,0.4,0.7,0.7c0.1,0.2,0.2,0.3,0.3,0.5c0.1,0.2,0.2,0.4,0.3,0.7c0,0.1,0,0.1,0.1,0.2
					c0,0.1,0,0.1,0,0.2c0,0.1,0,0.1,0,0.2l0,0.1l0,0l0,0.1c0,0.3,0,0.6,0,0.9c-0.1,0.6-0.3,1.2-0.7,1.7c-0.4,0.5-0.9,1-1.5,1.3
					c-0.1,0-0.2,0.1-0.2,0.1c-0.1,0-0.2,0.1-0.2,0.1l-0.3,0.1c0,0-0.1,0-0.1,0l-0.1,0c-0.1,0-0.2,0-0.3,0.1l-0.2,0l-0.1,0l0,0
					c0,0,0,0,0,0h0h0l-0.1,0l-0.3,0c-0.7,0-1.5-0.3-2.1-0.7c-0.6-0.4-1.2-0.9-1.5-1.6c0-0.1-0.1-0.2-0.1-0.2c0-0.1-0.1-0.2-0.1-0.2
					c-0.1-0.2-0.1-0.3-0.2-0.5c0-0.1,0-0.2-0.1-0.3c0-0.1,0-0.2-0.1-0.3l0,0l0,0l0-0.1l0-0.1l0-0.1l0,0l0,0l0,0c0,0,0-0.1,0-0.1v0
					c0-0.7,0.1-1.3,0.3-1.9c0.2-0.6,0.5-1,0.9-1.4c0.3-0.4,0.7-0.6,1-0.8c0.1,0,0.2-0.1,0.2-0.1c0,0,0.1,0,0.1-0.1
					c0,0,0.1,0,0.1-0.1c0.1,0,0.1-0.1,0.2-0.1c0,0,0.1,0,0.1,0c0,0,0,0,0.1,0c0.1-0.1,0.2-0.1,0.2-0.1c0.7-0.3,1.4,0.1,1.7,0.7
					c0.3,0.7-0.1,1.4-0.7,1.7C101.7,38.2,101.6,38.2,101.6,38.2z"/>
			</g>
		</g>
		<g>
			<path class="st0" d="M105.5,50.7c-1.1,0.1-2.1,0.2-3.2,0.1c-1.1-0.1-2.3-0.3-3.4-0.7c-1.4-0.5-2.7-1.2-3.8-2.1
				c-1.1-0.8-2-1.9-2.7-3c-0.7-1.2-1.1-2.5-1.2-3.9c-0.1-1.3,0.1-2.7,0.5-4c0.4-1.1,0.9-2.2,1.5-3.2c0.8-1.3,1.8-2.4,2.8-3.4
				c1.1-1.1,2.2-2,3.5-2.9c1.2-0.9,2.6-1.7,3.8-2.6c1.9-1.5,3.7-3.2,5-5.2c0.4-0.6,0.8-1.3,1.1-2c0.2-0.5,0.4-1.1,0.6-1.7
				c0,0,0,0,0,0c0.1-0.3,0.1-0.6,0.2-0.9c0.1-0.7,0.1-1.3,0.1-2c-0.1-1-0.3-2-0.7-2.9c-0.7-1.8-2-3.3-3.6-4.3c0,0,0,0,0,0
				c0,0-0.1,0-0.1-0.1c-0.1,0-0.1-0.1-0.2-0.1c-0.1-0.1-0.3-0.2-0.4-0.2c-0.5-0.3-1-0.5-1.5-0.7c-0.7-0.3-1.4-0.5-2.1-0.6
				c-0.3-0.1-0.7-0.1-1-0.1c-0.1,0-0.2,0-0.4,0c0,0,0,0,0,0c-2.6-0.1-5.2,0.4-7.6,1.3c-0.8,0.3-1.6,0.7-2.4,1.1
				c-0.3,0.1-0.5,0.3-0.8,0.4c-0.1,0.1-0.2,0.1-0.3,0.2c0,0-0.1,0-0.1,0c0,0-0.1,0-0.1,0c-0.5,0.3-0.9,0.6-1.4,0.8
				c-1.1,0.7-2,1.5-3,2.3c-1.6,1.4-2.9,3.1-4.1,4.9c-1,1.5-1.8,3.1-2.4,4.8c-0.6,1.5-1,3-1.2,4.6c-0.2,1.2-0.3,2.4-0.3,3.5
				c0,0.8,0,1.6,0.1,2.4c0,0.6,0.1,1.2,0.2,1.8c0.1,0.8,0.3,1.5,0.4,2.3c0.2,0.7,0.4,1.4,0.6,2.1c0,0,0,0.1,0,0
				c0.3,0.8,0.6,1.6,0.9,2.3c0.6,1.2,1.2,2.4,2,3.5c0.1,0.1,0.1,0.2,0.2,0.2c0,0,0,0.1,0.1,0.1c0,0,0.1,0.1,0.1,0.1
				c0.1,0.1,0.2,0.2,0.2,0.3c0.2,0.3,0.4,0.6,0.7,0.9c0.2,0.3,0.5,0.6,0.7,0.9c0.7,0.8,1.4,1.5,2.2,2.2c1.3,1.2,2.7,2.2,4.2,3
				c2.1,1.2,4.3,2.1,6.6,2.6c2,0.5,4.1,0.7,6.2,0.7c1.6,0,3.1-0.2,4.6-0.5c1.2-0.2,2.3-0.6,3.5-1c1.4-0.5,2.8-1.2,4.1-1.9
				c1-0.6,2-1.3,3-2.1c1.8-1.4,3.3-3.1,4.6-4.9c1.7-2.4,3-5.1,3.8-7.9c0.8-2.7,1-5.5,0.9-8.3c-0.2-3-0.9-5.9-2.1-8.7
				c-1-2.2-2.3-4.3-3.8-6.2c-0.2-0.2-0.3-0.4-0.5-0.6c-0.1-0.1-0.2-0.2-0.2-0.3c0,0-0.1-0.1-0.1-0.1c0-0.1,0.1-0.3,0.2-0.2
				c0,0,0.1,0.1,0.1,0.1c0.2,0.2,0.4,0.4,0.5,0.5c0.9,0.9,1.8,1.9,2.5,3c1.8,2.4,3.1,5.1,3.9,8c0.4,1.5,0.7,3,0.9,4.5
				c0.1,1.3,0.2,2.6,0.1,3.8c-0.1,1.5-0.3,3-0.6,4.5c-0.3,1.5-0.8,3-1.4,4.4c-1,2.5-2.4,4.9-4.1,7c-1.7,2.1-3.7,3.9-5.9,5.4
				c-2.2,1.5-4.6,2.6-7.2,3.4c-1.5,0.5-3,0.8-4.5,1c-1.3,0.2-2.6,0.2-3.9,0.2c-0.6,0-1.3,0-1.9-0.1c-1.5-0.1-3.1-0.4-4.6-0.7
				c-2.2-0.6-4.4-1.4-6.4-2.5c-1.7-0.9-3.2-2-4.6-3.1c-0.8-0.7-1.6-1.4-2.3-2.1c-0.5-0.5-1-1-1.4-1.6c-1.4-1.7-2.6-3.5-3.6-5.5
				c-1-2-1.8-4.1-2.2-6.3c-0.4-1.6-0.6-3.2-0.7-4.8c-0.1-1.1-0.1-2.2,0-3.3c0.1-1,0.1-2,0.3-2.9c0.3-1.5,0.6-2.9,1-4.3
				c0.5-1.6,1.2-3.2,2-4.7c1.2-2.2,2.7-4.3,4.4-6.2c1.4-1.5,2.9-2.8,4.5-3.9c1.1-0.8,2.2-1.4,3.4-2c1.8-0.9,3.7-1.6,5.7-2.2
				c0.9-0.2,1.7-0.4,2.6-0.5C97.9,0.1,98.9,0,100,0c2.5,0.1,5,0.7,7.1,1.9c2,1.1,3.8,2.7,5.1,4.6c1.2,1.8,1.9,3.9,2.2,6
				c0.2,2-0.1,4.1-0.8,6c-0.9,2.2-2.3,4.2-3.9,6c-1.9,2.1-4.3,3.7-6.8,5.1c-2.1,1.3-4.2,2.7-6,4.5c-0.9,0.9-1.7,1.9-2.3,3
				c-0.6,1.2-1.1,2.5-1.1,3.9c0,1.3,0.3,2.5,1,3.7c0.7,1.2,1.6,2.1,2.7,2.9c1.1,0.9,2.4,1.5,3.8,1.9c1.3,0.4,2.6,0.6,3.9,0.6
				c0.1,0,0.2,0,0.3,0c0.1,0,0.2,0,0.3,0C105.8,50.3,105.8,50.6,105.5,50.7z"/>
		</g>
	</g>
	<path class="st1" d="M192.1,83.8c-0.5,0.2-0.9,0.3-1.1,0.6l0,0c-1.5,1.2-6.5,4.6-8.3,5.4c-0.6,0.3-1.2,0.5-1.7,0.8
		c-1.6,0.7-3.4,1.3-5.5,1.8c-5.2,1.1-11,1.9-18.1,2.5c-3.3,0.4-6.7,0.7-10,0.9l-1.9,0.1c-3.4,0.2-7.5,0.3-12.2,0.3
		c-6.9,0-13.3-0.2-16.4-0.4c-3.6-0.2-6.5-0.4-9.2-0.6c-1.7-0.2-5.6-0.5-9-0.9c-2.5-0.2-4.6-0.4-5.5-0.5l-2-0.3
		c-4-0.5-12.5-1.7-14.2-1.8c-1.1-0.2-2.3-0.4-3.8-0.5l-0.8-0.1c-1.8-0.3-3.7-0.5-5.4-0.7c-1.2-0.2-2.3-0.3-3.5-0.5
		c-7.4-1-15.1-2-22.9-2.2c-1.1-0.1-2.5-0.1-4.1-0.1c-7.4,0-18.9,0.6-26.9,2.5c-1.7,0.4-7.9,2.1-8.6,2.4c-0.5,0.3-0.8,0.6-0.7,0.9
		C0.3,93.8,0.8,94,1.4,94c0.6,0,1.4-0.2,2.1-0.5c2.3-0.9,4.9-1.8,7.8-2.4c2.1-0.3,4.1-0.6,6.3-1l1.1-0.1c3.5-0.4,7.2-0.9,10.8-1
		c1.7-0.1,3.5-0.1,5.5-0.1c8.3,0,17.4,0.9,25.2,1.7c2.6,0.3,4.8,0.6,6.8,0.8c3.2,0.5,6.6,0.9,9.8,1.3l6,0.8c3.3,0.5,6.7,0.9,9.2,1.2
		c3.6,0.5,6.8,0.8,10.7,1.1c3.4,0.3,7.3,0.7,11.4,0.9c0.5,0,1,0,1.5,0c1.3,0,2.6,0.1,3.9,0.2c1.3,0,2.7,0.1,4,0.2
		c1.6,0.1,3.2,0.2,4.8,0.2c0.5,0,1,0,1.5,0c5.8,0,16.4-0.3,22-0.6c1-0.1,2-0.2,2.9-0.3c1-0.1,2-0.2,3-0.3l1.3-0.1
		c18.9-1.4,27.6-5.1,33.3-10.4c0.4-0.5,0.7-0.8,0.7-1.4C192.9,83.9,192.5,83.7,192.1,83.8z"/>
	<g>
		<g>
			<path class="st0" d="M121.9,58.4c0.3,0.5,0.5,1,0.5,1.6c0.1,1.9-0.8,4.2-1.5,5.5c-0.7,1-1.4,2-2.4,2.9c-0.6,0.7-1.2,1.3-1.8,1.9
				c-0.6,0.6-1.3,1.2-1.9,1.7c-0.1,0.1-0.2,0.2-0.3,0.4c0.3-0.1,0.6-0.1,0.7-0.1c2.1-0.2,4.1,0.6,5,1.7c1.1,1.2,1.2,2.4,0.5,4.4
				c-0.8,2.3-2.2,4.2-4.3,5.6c-1.3,0.9-2.8,1.7-4.3,2.3c-1.9,0.7-4.2,1-4.4-1.1c0.1,0,0.2,0,0.3-0.1c0.1,0.1,0.2,0.1,0.3,0.2
				c0.8,0.5,1.5,0.4,2.4,0.2c1-0.3,2-0.6,2.9-1.2c1.1-0.5,2.1-1.2,3.1-1.9c1.3-1.1,2.3-2.3,2.9-3.9c0.5-1.5,0.8-2.8-0.2-4
				c-0.9-1.1-1.9-1.5-3.2-1.4c-1.5,0.2-3,0.7-4.3,1.7c-0.5,0.4-1,0.8-1.5,1.2c-0.2,0.1-0.5,0.2-0.8,0.4c-0.4,0.1-0.8-0.3-0.7-0.7
				c0.1-0.3,0.2-0.6,0.5-0.8c0.2-0.2,0.4-0.3,0.7-0.5c1.1-0.8,2.2-1.6,3.3-2.5c1.3-1.1,2.3-2.2,3.6-3.3c0.8-0.7,1.6-1.4,2.3-2.3
				c1-1.4,1.7-2.7,2.1-4.4c0.7-2.5-0.3-4.4-2.8-2.9c-0.4,0.2-0.8,0.5-1.2,0.8c-0.8,0.6-1.5,1.2-2.2,1.8c-1,1.2-2.1,2.3-2.9,3.6
				c-2.1,3-2.1,2.8-3.6,6c-0.8,1.7-1.8,4.1-2.3,5.9c-0.6,1.7-1,3.5-1.4,5.2c0,0.4-0.1,0.6-0.1,1c0,0.5-0.2,1-0.2,1.5
				c0,0.1,0,0.2-0.1,0.2c-0.1,0.4-0.3,0.6-0.7,0.6c-0.4,0-0.8-0.2-0.9-0.6c-0.1-0.1-0.1-0.2-0.1-0.2c-0.6-6.7-1.2-12.1-1.8-17.8
				c-0.1-1-0.2-1.9-0.3-2.8c0-0.1-0.1-0.3-0.1-0.5c0-0.3,0.3-0.5,0.6-0.3c0.3,0.1,0.4,0.4,0.5,0.7c0,0.6,0.2,1.2,0.3,1.9
				c0.3,2.6,0.7,5,0.9,7.5c0.4,3.9,0.2,3.5,0.7,7c0.2-0.9,0.6-2,0.8-2.7c0.1-0.4,0.2-0.7,0.4-1c0.2-0.4,1.7-3.8,2.1-4.8
				c0.5-1,2.2-4,2.4-4.4c0.8-1.3,2.3-3.5,3.8-5.4c0.8-1.1,1.8-1.9,2.9-2.8c0.6-0.5,1.3-0.9,1.9-1.3
				C119.4,57.1,120.7,56.6,121.9,58.4z"/>
			<path class="st0" d="M130.6,73.3c-1.2,7.2-1.7,10.4,2.3,6.6c0.5-0.5,1.9-2.3,2-2.5c0.6-0.8,1.1-1.4,1.5-2.3
				c0.2-0.4,0.7,0,0.4,0.6c-1.1,2.2-3.4,5.7-5.6,6.6c-1.5,0.6-2.6-0.1-2.7-3.5c0-1.4,0.9-4.6,1-4.8c-2.3,3.5-6.2,8.6-6.6,5.1
				c-0.1-1.1,0.8-5.6,1.3-5.6c0.3,0,0.4,0.2,0.5,0.3c0.1,0.2,0.1,0.4,0.1,0.6c0,0.1-0.8,3-0.8,3.7c-0.7,3,3.3-3.1,5.5-5.4
				c0.3-0.4,0.7-0.3,0.9,0C130.7,72.8,130.7,73,130.6,73.3z"/>
			<path class="st0" d="M138,73.6c0.1,0.2,0.1,0.4,0.1,0.6c0,0.1-0.9,3.5-0.9,3.7c0.1,0.5,1.6-0.8,2.2-1.5c0.3-0.4,0.7-0.9,1-1.2
				c0.4-0.5,0.8-0.9,1.2-1.4c0.3-0.4,0.7-0.5,1.1-0.2c0.2,0.1,0.2,0.3,0.2,0.6c0.2,1.7,0.4,3.7,0.6,5.4c0,0,0,0.5,0,0.5
				c0-0.2,2.1-2,4.2-5.2c0.5-0.8,0.7-0.5,0.8-0.3c0.1,0.4-0.4,1.5-1.7,3.1c-0.4,0.5-1,1.4-1.5,1.7c-0.3,0.4-1.4,1.5-1.7,1.8v1
				c0,1.8-0.2,3.7-0.9,5.4l-0.9,2.4c-0.6,1.1-1.3,2.1-2.3,2.9c-0.9,1-2.4,1.4-3.1,0.3c-0.6-1.2-0.5-2.3-0.2-3.4
				c0.5-2.1,2.1-4.3,3.8-6.2c0.8-0.8,1.5-1.7,2.2-2.5c0.3-0.3,0.4-0.6,0.4-0.6c0-0.2,0-0.7-0.1-1c-0.1-1.3-0.3-2.5-0.5-3.7
				c0-0.2-0.1-0.6-0.1-0.8c-0.2,0.3-0.6,0.8-0.8,1c-0.2,0.3-0.5,0.6-0.7,0.9c-1.3,1.3-3.4,2.8-4,2.6c-0.2,0.1-0.4,0-0.6-0.2
				c-0.2-0.2-0.3-0.6-0.3-0.9c0.1-0.5,0.2-0.8,0.4-1.3c1-3.3,1.1-3.6,1.2-3.8c0-0.2,0.2-0.4,0.4-0.4C137.8,73.2,137.9,73.4,138,73.6
				z M142.3,82.3c-0.9,1-2.1,2.3-3.1,3.4c-1,1.2-1.7,2.4-2.3,3.8c-0.1,0.5-0.3,1-0.3,1.4c0,0.6,0,1,0.2,1.4c0.2,0.4,0.5,0.4,0.9,0.3
				c0.4-0.2,0.7-0.4,0.9-0.7c0.6-0.4,1.3-1.1,1.9-2.2c0.7-1.4,1.2-2.7,1.6-4.2c0.3-1.7,0.6-2.7,0.6-3.7
				C142.5,82,142.4,82.1,142.3,82.3z"/>
			<path class="st0" d="M148.3,75.2c0.2,0,0.4-0.1,0.5-0.2c0.5-0.2,1.7-0.9,2-1c0.3-0.1,0.6-0.1,0.8,0.1c0.4,0.4,0.3,1,0.2,1.5
				c-0.1,0.8-0.3,1.5-0.4,2.2c-0.4,1.4-0.8,3.7-0.7,5.1c0.1,0.5,0.1,1.1,0.4,1.6c0.1,0.2,0.1,0.3,0,0.4c-0.1,0.2-0.3,0.2-0.5,0.1
				c-0.3-0.1-0.5-0.3-0.6-0.6c0-0.2-0.1-0.4-0.1-0.5c-0.2-1-0.3-2-0.1-3.5c0.1-0.8,0.6-2.7,1-4c0.3-0.8,0.4-1.7,0.2-1.7
				c-0.2,0-0.2,0.1-0.4,0.1c-0.7,0.4-1.3,0.8-2,1.1c-0.2,0.2-1.2,0.7-1.9,0.7c-1.5,0.2-2-0.6-1.8-1.7c0.1-0.3,0.1-0.6,0.2-0.8
				c0.4-0.9,1-1.7,1.6-2.4c0.4-0.5,0.9-0.6,1.5-0.3C149,72.2,149,73.1,148.3,75.2z M146.1,74.8c-0.2,0.7-0.4,1.2,0.1,1.2
				c0.2,0,0.4-0.1,0.6-0.1c0.3-0.1,0.4-0.2,0.5-0.5c0.3-0.6,0.6-1.8,0.6-2.6c0-0.4-0.3-0.5-0.6-0.2
				C147.1,72.7,146.4,73.7,146.1,74.8z"/>
			<path class="st0" d="M161.2,73.3c-1.2,7.2-1.7,10.4,2.3,6.6c0.5-0.5,1.9-2.3,2-2.5c0.6-0.8,1.1-1.4,1.5-2.3
				c0.2-0.4,0.7,0,0.4,0.6c-1.1,2.2-3.4,5.7-5.6,6.6c-1.5,0.6-2.6-0.1-2.7-3.5c0-1.4,0.9-4.6,1-4.8c-2.3,3.5-6.2,8.6-6.6,5.1
				c-0.1-1.1,0.8-5.6,1.3-5.6c0.3,0,0.4,0.2,0.5,0.3c0.1,0.2,0.1,0.4,0.1,0.6c0,0.1-0.8,3-0.8,3.7c-0.7,3,3.3-3.1,5.5-5.4
				c0.3-0.4,0.7-0.3,0.9,0C161.2,72.8,161.3,73,161.2,73.3z"/>
			<path class="st0" d="M168.7,64.7c0.2,0.1,0.3,0.7,0.2,1.3c-0.1,4.8-0.5,6.1-1.1,11.2c0.1-0.1,0.3-0.2,0.4-0.2
				c1.9-1.1,4.3-2.5,6.2-3.9c0.1,0,0.2-0.2,0.4-0.3c0.4-0.3,0.5-0.3,0.6-0.5c0.3-0.3,0.5,0.6,0.2,0.9c-0.3,0.4-0.8,0.8-1.1,1
				c-0.6,0.6-1.3,1-2,1.4c-1.3,0.9-1.9,1.3-5,2.8c0,0-0.1,1-0.1,1.5c0,0,0.9,0.4,1.6,0.6c1.8,0.6,2.7,0.6,3.6,0.7
				c0.4,0.1,0.9,0,1.2-0.5c0.2-0.4,0.5-0.3,0.5,0.1c0,0.4,0,0.5,0.1,0.9c0,0.4-0.3,0.6-0.6,0.6c-0.2,0-0.5,0-0.7,0
				c-1.4-0.1-4.4-0.7-5.8-1.3c0,0-0.3,2.2-0.2,3c0,0.1,0,0.5-0.4,0.5c-0.2,0-0.3-0.2-0.5-0.5c-0.1-0.2-0.1-0.5-0.1-0.7
				c-0.1-0.8,0.2-2.1,0.2-2.8c-0.2-0.1-1.2-0.6-1.4-0.8c-0.4-0.3-0.7-0.5-0.8-1c0-0.1,0-0.3,0.2-0.4c0.1,0,0.4-0.1,0.6-0.1
				c1.1-0.3,1.9-0.7,1.9-0.7c0.2-1.1,0.8-5.5,1-8.1l0.2-2.5c0.1-0.6,0-1.1,0.1-1.7c0-0.6,0.2-0.7,0.5-0.8
				C168.6,64.6,168.7,64.6,168.7,64.7z M166.5,78.8c-0.1,0-0.8,0.3-1,0.2c0.2,0.4,0.8,0.6,0.8,0.6L166.5,78.8z"/>
			<path class="st0" d="M186.8,76.7c-0.1,0.3-1.4,2.3-2.9,4.4c-1.2,1.4-2.5,2.1-4.2,2.5c-0.3,0.1-0.6,0.1-0.9,0c0,0.2,0,0.4,0,0.6
				l-0.1,0.5v0.2c0.1,0,0.2-0.1,0.3-0.1c0.4-0.1,0.8-0.2,1.3-0.1c0.5,0.1,0.8,0.4,1,0.8c0.1,0.1,0.1,0.2,0.1,0.4
				c-0.1,0.2-0.2,0.5-0.4,0.6c-0.1,0.1-0.2,0.2-0.4,0.3c-0.1,0.1-0.2,0.1-0.3,0.2c-2.7,1.4-2.5,0.5-2.5,0.3c0.1-0.4,0.7,0,2.3-0.9
				c0.4-0.2,0.6-0.4,0.7-0.8c0,0,0-0.1,0-0.2c0-0.2,0-0.3-0.2-0.3c-0.5-0.1-0.9,0-1.3,0.2c-0.2,0.1-0.5,0.2-0.7,0.4
				c-0.1,0.1-0.2,0.1-0.4,0l-0.1-0.1c-0.2-0.1-0.2-0.4-0.2-0.5c0-0.1,0-0.2,0.1-0.3c0.1-0.4,0.1-0.9,0.2-1.3v0
				c-1.4-0.4-1.8-1.1-1.9-2c-0.1-1,0.2-2,0.3-2.9c0.1-0.8,0.6-3.3,1.5-4.1c0.2-0.3,0.7-0.4,1.2-0.5c0.5-0.1,1.1,0.1,1.4,0.3l1.1,0.7
				c0.2,0.1,0.3,0.2,0.3,0.4c0,0.1,0,0.2,0,0.3c-0.5,0.3-1.2-0.4-1.6-0.7c-0.2-0.1-0.4-0.3-0.6-0.3c-0.9-0.1-1.4,1-1.6,1.4
				c-0.4,1.1-0.5,1.9-0.7,2.6c-0.1,0.4,0,0.8-0.1,1.2c-0.1,0.3-0.1,0.7-0.1,1c-0.1,1.7,1.2,2.1,2.1,1.9c0.7-0.2,1.3-0.5,1.9-0.9
				c0.9-0.7,1.9-1.7,2.7-2.6c0.9-1,1.3-1.7,1.7-2.6C187.2,74.2,187,76.5,186.8,76.7z"/>
			<path class="st0" d="M193.6,73.3c-1.2,7.2-1.7,10.4,2.3,6.6c0.5-0.5,1.9-2.3,2-2.5c0.6-0.8,1.1-1.4,1.5-2.3
				c0.2-0.4,0.7,0,0.4,0.6c-1.1,2.2-3.4,5.7-5.6,6.6c-1.5,0.6-2.6-0.1-2.7-3.5c0-1.4,0.9-4.6,1-4.8c-2.3,3.5-6.2,8.6-6.6,5.1
				c-0.1-1.1,0.8-5.6,1.3-5.6c0.3,0,0.4,0.2,0.5,0.3c0.1,0.2,0.1,0.4,0.1,0.6c0,0.1-0.8,3-0.8,3.7c-0.7,3,3.3-3.1,5.5-5.4
				c0.3-0.4,0.7-0.3,0.9,0C193.7,72.8,193.7,73,193.6,73.3z"/>
		</g>
		<g>
			<path class="st0" d="M56.4,58.4c0.3,0.5,0.5,1,0.5,1.6c0.1,1.9-0.8,4.2-1.5,5.5c-0.7,1-1.4,2-2.4,2.9c-0.6,0.7-1.2,1.3-1.8,1.9
				c-0.6,0.6-1.3,1.2-1.9,1.7c-0.1,0.1-0.2,0.2-0.3,0.4c0.3-0.1,0.6-0.1,0.7-0.1c2.1-0.2,4.1,0.6,5,1.7c1.1,1.2,1.2,2.4,0.5,4.4
				c-0.8,2.3-2.2,4.2-4.3,5.6c-1.3,0.9-2.8,1.7-4.3,2.3c-1.9,0.7-4.2,1-4.4-1.1c0.1,0,0.2,0,0.3-0.1c0.1,0.1,0.2,0.1,0.3,0.2
				c0.8,0.5,1.6,0.4,2.4,0.2c1-0.3,2-0.6,2.9-1.2c1.1-0.5,2.1-1.2,3.1-1.9c1.3-1.1,2.3-2.3,2.9-3.9c0.5-1.5,0.8-2.8-0.2-4
				c-0.9-1.1-1.9-1.5-3.2-1.4c-1.6,0.2-3,0.7-4.3,1.7c-0.5,0.4-1,0.8-1.5,1.2c-0.2,0.1-0.5,0.2-0.8,0.4c-0.4,0.1-0.8-0.3-0.7-0.7
				c0.1-0.3,0.2-0.6,0.5-0.8c0.2-0.2,0.4-0.3,0.7-0.5c1.1-0.8,2.2-1.6,3.3-2.5c1.3-1.1,2.3-2.2,3.6-3.3c0.8-0.7,1.6-1.4,2.3-2.3
				c1-1.4,1.7-2.7,2.1-4.4c0.7-2.5-0.3-4.4-2.8-2.9c-0.4,0.2-0.8,0.5-1.2,0.8c-0.8,0.6-1.5,1.2-2.2,1.8c-1,1.2-2.1,2.3-2.9,3.6
				c-2.1,3-2.1,2.8-3.6,6c-0.8,1.7-1.8,4.1-2.3,5.9c-0.6,1.7-1,3.5-1.4,5.2c0,0.4-0.1,0.6-0.1,1c0,0.5-0.2,1-0.2,1.5
				c0,0.1,0,0.2-0.1,0.2c-0.1,0.4-0.3,0.6-0.7,0.6c-0.4,0-0.8-0.2-0.9-0.6c-0.1-0.1-0.1-0.2-0.1-0.2c-0.6-6.7-1.2-12.1-1.8-17.8
				c-0.1-1-0.2-1.9-0.3-2.8c0-0.1-0.1-0.3-0.1-0.5c0-0.3,0.3-0.5,0.6-0.3c0.3,0.1,0.4,0.4,0.5,0.7c0,0.6,0.2,1.2,0.3,1.9
				c0.3,2.6,0.7,5,0.9,7.5c0.4,3.9,0.2,3.5,0.7,7c0.2-0.9,0.6-2,0.8-2.7c0.1-0.4,0.2-0.7,0.4-1c0.2-0.4,1.7-3.8,2.1-4.8
				c0.5-1,2.2-4,2.4-4.4c0.8-1.3,2.3-3.5,3.8-5.4c0.8-1.1,1.8-1.9,2.9-2.8c0.6-0.5,1.3-0.9,1.9-1.3C53.9,57.1,55.2,56.6,56.4,58.4z"
				/>
			<path class="st0" d="M65.1,73.3c-1.2,7.2-1.7,10.4,2.3,6.6c0.5-0.5,1.9-2.3,2-2.5c0.6-0.8,1.1-1.4,1.5-2.3c0.2-0.4,0.7,0,0.4,0.6
				c-1.1,2.2-3.4,5.7-5.6,6.6c-1.5,0.6-2.6-0.1-2.7-3.5c0-1.4,0.9-4.6,1-4.8c-2.3,3.5-6.2,8.6-6.6,5.1c-0.1-1.1,0.8-5.6,1.3-5.6
				c0.3,0,0.4,0.2,0.5,0.3c0.1,0.2,0.1,0.4,0.1,0.6c0,0.1-0.8,3-0.8,3.7c-0.7,3,3.3-3.1,5.5-5.4c0.3-0.4,0.7-0.3,0.9,0
				C65.1,72.8,65.1,73,65.1,73.3z"/>
			<path class="st0" d="M74.4,74.8c0,0.1,0.1,0.1,0.2,0.2c0.2-0.1,0.3-0.1,0.5-0.2c0.6-0.4,1.1-0.3,1.3,0.4c0.2,0.7,0,3.2,0,3.8
				c1.8-1.3,3-2.4,4.4-3.8c1.4-1.4,1.2-0.1,0.3,1c-1.5,1.6-3.6,3-4.7,4l0,0.8c-0.1,1.1-0.1,1.9-0.2,3c-0.1,0.9-0.2,1.7-0.4,2.7
				c-0.1,0.5-1.3,5.1-4.3,7.1c-0.9,0.6-2.4,0.7-2.9-0.3c-0.9-2.3,0.4-4.4,1.1-5.9c2.2-4.2,3.2-5.2,5.5-7.7l0.3-0.3
				c0,0.8,0.2-2.4,0.1-3.2c0-0.2,0-0.5,0-0.7c-0.2,0.1-1,0.7-1.2,1c-1,0.9-2.1,1.8-3.2,2.7c-1.2,0.8-2.5,0.8-2.8,0.2
				c-0.4-0.8,0.7-3.3,2-4.3c0.8-0.6,1.7-0.9,2.7-1C73.6,74.3,74,74.4,74.4,74.8z M74.3,82.5c-0.4,0.5-1.1,1.4-1.3,1.8
				c-1.2,1.9-2,2.9-3,5.2c-0.6,1.2-1,2.3-0.3,3.4c0.2,0.2,0.5,0.4,0.8,0.2c0.7-0.2,1.8-1.3,2.6-2.4c0.8-1.3,1.9-3.5,2.3-7.3
				c0.1-0.8,0.2-1.4,0.2-2.3C75.3,81.4,74.5,82.3,74.3,82.5z M70.1,78c0,0,0,0.1-0.1,0.3c-0.3,1.1,4.1-2.3,4.2-2.4
				c-0.4-0.5-0.8-0.5-1.3-0.3C71.6,76,70.8,76.8,70.1,78z"/>
			<path class="st0" d="M81.6,75.2c0.2,0,0.4-0.1,0.5-0.2c0.5-0.2,1.7-0.9,2-1c0.3-0.1,0.6-0.1,0.8,0.1c0.4,0.4,0.3,1,0.2,1.5
				c-0.1,0.8-0.3,1.5-0.4,2.2c-0.4,1.4-0.8,3.7-0.7,5.1c0.1,0.5,0.1,1.1,0.4,1.6c0.1,0.2,0.1,0.3,0,0.4c-0.1,0.2-0.3,0.2-0.5,0.1
				c-0.3-0.1-0.5-0.3-0.6-0.6c0-0.2-0.1-0.4-0.1-0.5c-0.2-1-0.3-2-0.1-3.5c0.1-0.8,0.6-2.7,1-4c0.3-0.8,0.4-1.7,0.2-1.7
				c-0.2,0-0.2,0.1-0.4,0.1c-0.7,0.4-1.3,0.8-2,1.1c-0.2,0.2-1.2,0.7-1.9,0.7c-1.5,0.2-2-0.6-1.8-1.7c0.1-0.3,0.1-0.6,0.2-0.8
				c0.4-0.9,1-1.7,1.6-2.4c0.4-0.5,0.9-0.6,1.5-0.3C82.3,72.2,82.3,73.1,81.6,75.2z M79.4,74.8c-0.2,0.7-0.4,1.2,0.1,1.2
				c0.2,0,0.4-0.1,0.6-0.1c0.3-0.1,0.4-0.2,0.5-0.5c0.3-0.6,0.6-1.8,0.6-2.6c0-0.4-0.3-0.5-0.6-0.2C80.4,72.7,79.7,73.7,79.4,74.8z"
				/>
			<path class="st0" d="M99.1,76c-0.5,0.6-3.2,5.1-3.7,5.8c-0.2,0.2-0.3,0.4-0.4,0.6c-0.3,0.5-0.8,1-1.5,1.2c-0.8,0.5-2.1,0.1-2.3-1
				c-0.1-0.3-0.1-0.6-0.1-1c0-0.9,0-1.9,0.1-2.8c0.1-0.8,0.2-1.6,0.4-2.4c-0.1,0.2-1.6,2.3-3.2,3.4c-1.3,0.9-2.2-0.2-2.2-1.5
				c0-1,0.5-1.9,1-2.7c0.5-0.9,1.5-1.9,2.8-1.5c0.4,0.1,0.9,0.2,1.4,0.6c0.1,0,0.2-0.1,0.3-0.3c0.1-0.1,0.4-1,0.9-0.8
				c0.5,0.1,0.4,0.6,0.4,1.1c-0.1,0.7-0.2,1.4-0.3,2.1c-0.1,0.6-0.2,1.3-0.3,2c-0.2,1.2-0.2,1.7-0.3,2.5c0,0.8,0,1,0.2,1.5
				c0,0.1,0.1,0.2,0.2,0.1c0.6-0.1,1.2-0.7,1.7-1.2c0.5-0.6,2.4-3.2,2.9-3.9c0.2-0.2,0.9-1.5,1.2-1.9c0.1-0.2,0.2-0.2,0.4-0.1
				c0.2,0.1,0.1,0.1,0.4,0.2C99,75.9,99.1,75.9,99.1,76z M89.9,74.8c-0.3,0-0.4,0-0.7,0.2c-0.6,0.5-2.1,3.1-1.7,4.4
				c0.2,0.1,0.4,0,0.5-0.2c0.9-0.8,2.5-2.5,3.1-3.7C91.2,75.4,90.6,74.9,89.9,74.8z M91.6,76.5 M91.7,76.4
				C91.7,76.3,91.7,76.3,91.7,76.4L91.7,76.4z"/>
			<path class="st0" d="M75.6,71.2l-0.2-0.1c0,0-0.1-0.1-0.2-0.1l-0.1,0l-0.3,0.3l0,0.2l0,0.1c0,0.1-0.1,0.1-0.2,0.2
				c0,0-0.1,0.1-0.1,0.1L74.5,72c-0.1,0.1-0.2,0.1-0.3,0.2c-0.1,0.1-0.2,0.1-0.4,0.2c-0.2,0.1-0.4,0.1-0.6,0.2c0,0-0.1,0-0.1,0
				l-0.1,0c-0.1,0-0.1,0-0.2,0c-0.1,0-0.3,0.1-0.4,0.1l-0.5,0.1c-0.2,0-0.4,0-0.6,0c-0.1,0-0.2,0-0.4,0c-0.1,0-0.2,0-0.3,0
				c-0.3,0-0.5,0-0.6,0.1c-0.2,0.1-0.6,0.2-0.9,0.7c-0.1,0.1-0.1,0.4,0,0.6l0.1,0.2h0.2l0.2,0l0.1-0.2c0.2-0.4,0.2-0.4,0.5-0.4
				c0.2,0,0.8-0.1,1.1-0.1l0.4,0c0.1,0,0.1,0,0.2,0c0.2,0,0.4,0,0.6-0.1c0.2,0,0.4-0.1,0.5-0.1l0.1,0c0.1,0,0.2,0,0.3-0.1l0.1,0
				c0.1,0,0.2,0,0.3-0.1c0.1,0,0.1,0,0.2-0.1l0.2-0.1c0.1,0,0.2-0.1,0.3-0.1c0.1,0,0.3-0.1,0.3-0.2c0.1,0,0.2-0.1,0.3-0.2
				c0,0,0.1,0,0.1-0.1c0,0,0.1-0.1,0.1-0.1c0.1-0.1,0.1-0.1,0.2-0.2c0.1-0.1,0.2-0.3,0.3-0.5c0-0.1,0.1-0.1,0.1-0.2l0-0.2L75.6,71.2
				z"/>
		</g>
		<g>
			<path class="st0" d="M20.7,65.9c0.1,1.8,0.1,3.6,0,5.3c-0.1,1-0.3,1.9-0.5,2.8c-0.5,1.9-1.4,3.8-2.4,5.5c-0.5,1-1.2,1.8-1.9,2.5
				c-0.7,0.8-1.6,1.6-2.4,2.2c-1.6,1.5-4.5,3.1-6.8,2c-0.7-0.4-1.2-0.9-1.5-1.8c0,0,0-0.1,0-0.2c0.2,0.2,0.3,0.3,0.5,0.5
				c0.8,0.8,1.7,1.1,2.7,0.9c1.2-0.2,2.2-0.7,3.2-1.4c1.3-0.9,2.4-2,3.5-3.2c0.9-1,1.7-2,2.4-3.2c1.8-3.2,2.5-7.9,2.2-12.2
				c-0.2-2.2-0.5-3.8-1.4-5.8c-1.3-3-2.5-3.4-5.3-0.6c-0.3,0.3-0.6,0.6-0.9,0.9c-1.4,1.5-2.5,3.3-3.6,5.2c-1.3,2.3-2.2,4.8-3.2,7.3
				c-0.5,1.1-0.9,2.3-1.3,3.4c-0.4,1.1-0.8,2.2-1.1,3.3C2.8,80.2,2.6,81,2.4,82c-0.2,1-0.3,2.1-0.2,3.2c0,0.5,0,1-0.1,1.6
				c0,0.4-0.3,0.5-0.6,0.3c-0.3-0.2-0.5-0.5-0.5-1c0-0.5-0.1-1-0.1-1.5c0.1-1.8,0-3.7-0.2-5.5c-0.1-1.9-0.1-3.8-0.2-5.6
				c-0.2-2.8-0.3-5.7-0.5-8.4C0.1,63.4,0,61.9,0,60.3c0-0.2,0-0.4,0.2-0.4c0.2-0.1,0.5,0,0.6,0.2c0.1,0.1,0.2,0.3,0.2,0.6
				c0.2,0.7,0.2,1.6,0.3,2.4c0,1.4,0.1,2.7,0.2,4c0.1,2.2,0.2,4.3,0.3,6.5c0,1.2,0.1,2.4,0.1,3.6c0,0.2,0,0.4,0,0.6c0,0,0.1,0,0.1,0
				l0.1-0.4c0.7-1.9,1.4-3.6,2.1-5.3c1-2.6,2.2-5.1,3.4-7.5c2.7-5.2,7.8-10.5,10.5-7.3C20,59.7,20.6,62.8,20.7,65.9z"/>
			<path class="st0" d="M24.5,73.2c0.5,0.7,0.4,2.2,0.4,2.5v0.2c1.3-0.5,2.6-1.7,3.3-2.3c0.4-0.2,0.7-0.2,1-0.2
				c0.3,0,0.4,0.2,0.3,0.5c-0.2,1-0.8,3.5-0.8,3.9c-0.6,3.9-0.6,5-0.4,6.6c0.1,0.7,0.7,0.7,0.2,1.1c-0.2,0.2-0.5,0.2-0.7,0.1
				c-0.9-0.8-0.9-2.5-0.7-4.2c0.2-2.4,0.7-4.1,1.2-6.3c0,0,0-0.2,0-0.3c-0.1,0.1-0.3,0.2-0.4,0.3c-0.5,0.4-1.7,1.2-3,1.9
				c-0.2,0.1-0.2,0-0.2,0.2c-0.1,0.5-0.3,0.9-0.7,1.8c-0.5,0.9-0.9,1.6-1.5,1.8c-0.1,0-0.2,0-0.3-0.1c-0.2-0.3,0.1-0.5,0.2-0.8
				c0.6-0.8,1-1.7,1.2-2.4l0.1-0.3c-0.2-0.1-0.4-0.1-0.5-0.2c-1.1-0.6-1.4-1.3-1.1-2.5c0.2-0.7,0.5-1.2,1-1.6
				C23.6,72.5,24.2,72.6,24.5,73.2z M22.9,75.3c0,0.5,0.2,0.7,0.7,0.7c0.3,0,0.4-0.1,0.4-0.3c0.1-0.7,0.2-1.3-0.1-2
				C23.7,73,22.7,74.1,22.9,75.3z"/>
			<path class="st0" d="M33,83.7c0.1,0.6-0.1,1.2-0.5,1.7c-0.1,0.2-0.5,0.4-1,0.2c-0.1-0.1-0.2-0.1-0.3-0.4c-0.2-0.3-0.1-0.7,0-1
				c0.1-0.4,0.6-0.8,1-1C32.6,83.3,32.9,83.3,33,83.7z"/>
		</g>
	</g>
</g>
</svg>
